<?xml version="1.0" encoding="utf-8"?>
<!-- Generator: Adobe Illustrator 23.0.1, SVG Export Plug-In . SVG Version: 6.00 Build 0)  -->
<svg version="1.1" id="レイヤー_17" xmlns="http://www.w3.org/2000/svg" xmlns:xlink="http://www.w3.org/1999/xlink" x="0px"
	 y="0px" width="500px" height="500px" viewBox="0 0 500 500" style="enable-background:new 0 0 500 500;" xml:space="preserve">
<style type="text/css">
	.st0{fill:#FFF;}
</style>
<g>
	<path class="st0" d="M369.3,330.8c-21.5,0-40.9,9.7-53.9,24.9L197.2,274c2.9-7.7,4.4-16,4.4-24.7c0-8.7-3.3-26.1-11.4-36.3
		l118.1-81.7c8.1,15.9,28.2,34.7,60.8,36.5c39.1,2.2,70.9-31.8,70.9-70.9c0-39.1-31.8-70.9-70.9-70.9S298.3,57.9,298.3,97
		c0,8.7,1.6,17,4.4,24.7l-118.1,81.7c-13-15.2-32.3-24.9-53.9-24.9c-39.1,0-70.9,31.8-70.9,70.9c0,39.1,31.8,70.9,70.9,70.9
		c21.5,0,40.9-9.7,53.9-24.9l118.1,81.7c-2.9,7.7-4.4,16-4.4,24.7c0,39.1,31.8,70.9,70.9,70.9s70.9-31.8,70.9-70.9
		S408.4,330.8,369.3,330.8z M369.3,50.9c25.4,0,46.1,20.7,46.1,46.1s-20.7,46.1-46.1,46.1c-25.4,0-46.1-20.7-46.1-46.1
		S343.9,50.9,369.3,50.9z M130.7,295.4c-25.4,0-46.1-20.7-46.1-46.1s20.7-46.1,46.1-46.1s46.1,20.7,46.1,46.1
		S156.1,295.4,130.7,295.4z M369.3,447.8c-25.4,0-46.1-20.7-46.1-46.1c0-25.4,20.7-46.1,46.1-46.1c25.4,0,46.1,20.7,46.1,46.1
		C415.3,427.2,394.7,447.8,369.3,447.8z"/>
</g>
</svg>
