<?xml version="1.0" encoding="utf-8"?>
<!-- Generator: Adobe Illustrator 23.0.1, SVG Export Plug-In . SVG Version: 6.00 Build 0)  -->
<svg version="1.1" id="レイヤー_17" xmlns="http://www.w3.org/2000/svg" xmlns:xlink="http://www.w3.org/1999/xlink" x="0px"
	 y="0px" width="500px" height="500px" viewBox="0 0 500 500" style="enable-background:new 0 0 500 500;" xml:space="preserve">
<style type="text/css">
	.st0{fill:#FFF;}
</style>
<g>
	<path class="st0" d="M455.8,64.1h-99.3V37.5c0-6.5-5.3-11.7-11.7-11.7S333,31,333,37.5v26.6h-70.4V35.8c0-6.5-5.3-11.7-11.7-11.7
		s-11.7,5.3-11.7,11.7v28.3h-70.4V37.5c0-6.5-5.3-11.7-11.7-11.7s-11.7,5.3-11.7,11.7v26.6H46c-6.5,0-11.7,5.3-11.7,11.7v386.3
		c0,6.5,5.3,11.7,11.7,11.7h409.8c6.5,0,11.7-5.3,11.7-11.7V75.8C467.5,69.4,462.3,64.1,455.8,64.1z M444,450.5H57.7V75.8h87.6V101
		c0,6.5,5.3,11.7,11.7,11.7s11.7-5.3,11.7-11.7V75.8h70.4v23.5c0,6.5,5.3,11.7,11.7,11.7s11.7-5.3,11.7-11.7V75.8H333V101
		c0,6.5,5.3,11.7,11.7,11.7s11.7-5.3,11.7-11.7V75.8H444V450.5z"/>
	<rect x="123.7" y="168.3" class="st0" width="66.5" height="43.1"/>
	<rect x="217.6" y="168.3" class="st0" width="66.5" height="43.1"/>
	<rect x="311.5" y="168.3" class="st0" width="66.5" height="43.1"/>
	<rect x="123.7" y="251" class="st0" width="66.5" height="43.1"/>
	<rect x="217.6" y="251" class="st0" width="66.5" height="43.1"/>
	<rect x="311.5" y="251" class="st0" width="66.5" height="43.1"/>
	<rect x="123.7" y="333.7" class="st0" width="66.5" height="43.1"/>
	<rect x="217.6" y="333.7" class="st0" width="66.5" height="43.1"/>
	<rect x="311.5" y="333.7" class="st0" width="66.5" height="43.1"/>
</g>
</svg>
