<?xml version="1.0" encoding="utf-8"?>
<!-- Generator: Adobe Illustrator 23.0.1, SVG Export Plug-In . SVG Version: 6.00 Build 0)  -->
<svg version="1.1" id="レイヤー_17" xmlns="http://www.w3.org/2000/svg" xmlns:xlink="http://www.w3.org/1999/xlink" x="0px"
	 y="0px" width="500px" height="500px" viewBox="0 0 500 500" style="enable-background:new 0 0 500 500;" xml:space="preserve">
<style type="text/css">
	.st0{fill:#FFFFFF;}
</style>
<g>
	<g>
		<g>
			
				<rect x="256.6" y="86" transform="matrix(0.7071 -0.7071 0.7071 0.7071 11.346 218.3153)" class="st0" width="25.2" height="18.9"/>
			
				<rect x="283.3" y="112.7" transform="matrix(0.7071 -0.7071 0.7071 0.7071 0.2743 245.015)" class="st0" width="25.2" height="18.9"/>
		</g>
	</g>
	<g>
		<g>
			<path class="st0" d="M457.5,239.9l-45.8-45.8c-0.7-0.7-2-0.7-2.7,0c-2.6,2.6-6,4-9.6,4s-7.1-1.4-9.6-4c-5.3-5.3-5.3-13.9,0-19.2
				c0.7-0.7,0.7-1.9,0-2.7l-15.5-15.5l32.6-32.6c0.7-0.7,0.7-1.9,0-2.7l-45.8-45.8c-0.7-0.7-2-0.7-2.7,0c-2.6,2.6-6,4-9.6,4
				s-7.1-1.4-9.6-4c-2.6-2.6-4-6-4-9.6s1.4-7.1,4-9.6c0.4-0.4,0.6-0.8,0.6-1.3s-0.2-1-0.6-1.3l-45.9-46c-0.7-0.7-1.9-0.7-2.7,0
				L42.5,255.9c-0.7,0.7-0.7,1.9,0,2.7l45.8,45.8c0.7,0.7,2,0.7,2.7,0c2.6-2.6,6-4,9.6-4s7.1,1.4,9.6,4c2.6,2.6,4,6,4,9.6
				s-1.4,7.1-4,9.6c-0.7,0.7-0.7,1.9,0,2.7l15.5,15.5l-32.6,32.6c-0.7,0.7-0.7,1.9,0,2.7l45.8,45.8c0.7,0.7,1.9,0.7,2.7,0
				c5.3-5.3,13.9-5.3,19.2,0c2.6,2.6,4,6,4,9.6s-1.4,7.1-4,9.6c-0.4,0.4-0.6,0.8-0.6,1.3s0.2,1,0.6,1.3l45.8,45.8
				c0.4,0.4,0.9,0.6,1.3,0.6c0.5,0,1-0.2,1.3-0.6l248.2-248.2c0.4-0.4,0.6-0.8,0.6-1.3S457.8,240.2,457.5,239.9z M356.3,271
				l20.5,20.5L208,460.3L186.6,439c2.1-11.7-1.6-23.5-10-31.9s-20.2-12.1-31.9-10l-30.3-30.3L283.2,198l6.1,6.1
				c0.7,0.7,1.9,0.7,2.7,0l17.8-17.8c0.4-0.4,0.6-0.8,0.6-1.3s-0.2-1-0.6-1.3l-6.1-6.1l29.8-29.8l30.3,30.3
				c-2.1,11.7,1.6,23.5,10,31.9s20.2,12.1,31.9,10l21.4,21.4L397.3,271l-20.5-20.5c-0.7-0.7-2-0.7-2.7,0l-17.8,17.8
				c-0.4,0.4-0.6,0.8-0.6,1.3C355.7,270.1,355.9,270.6,356.3,271z M232.8,79.5l6.1,6.1c0.7,0.7,1.9,0.7,2.7,0l17.8-17.8
				c0.4-0.4,0.6-0.8,0.6-1.3s-0.2-1-0.6-1.3l-6.1-6.1l29.8-29.8l30.3,30.3c-2.1,11.7,1.6,23.5,10,31.9s20.2,12.1,31.9,10l21.4,21.4
				L358.6,141l-14.5-14.5c-0.7-0.7-1.9-0.7-2.7,0L141.6,326l-5.5-5.5c2.1-11.7-1.6-23.5-10-31.9s-20.2-12.1-31.9-10L64,248.4
				L232.8,79.5z"/>
			
				<rect x="307.2" y="204.5" transform="matrix(0.7071 -0.7071 0.7071 0.7071 -57.6296 288.7778)" class="st0" width="25.2" height="18.9"/>
			
				<rect x="333.9" y="231.3" transform="matrix(0.7071 -0.7071 0.7071 0.7071 -68.7306 315.5482)" class="st0" width="25.2" height="18.9"/>
		</g>
	</g>
</g>
</svg>
