<?xml version="1.0" encoding="utf-8"?>
<!-- Generator: Adobe Illustrator 23.0.1, SVG Export Plug-In . SVG Version: 6.00 Build 0)  -->
<svg version="1.1" id="レイヤー_17" xmlns="http://www.w3.org/2000/svg" xmlns:xlink="http://www.w3.org/1999/xlink" x="0px"
	 y="0px" width="500px" height="500px" viewBox="0 0 500 500" style="enable-background:new 0 0 500 500;" xml:space="preserve">
<style type="text/css">
	.st0{fill:#C30D23;}
</style>
<g>
	<g>
		<g>
			
				<rect x="257.1" y="94.7" transform="matrix(0.7071 -0.7071 0.7071 0.7071 5.5126 220.593)" class="st0" width="23.8" height="17.9"/>
			
				<rect x="282.4" y="120" transform="matrix(0.7071 -0.7071 0.7071 0.7071 -4.9464 245.8432)" class="st0" width="23.8" height="17.9"/>
		</g>
	</g>
	<g>
		<g>
			<path class="st0" d="M447,240.2l-43.3-43.3c-0.7-0.7-1.9-0.7-2.5,0c-2.4,2.4-5.7,3.8-9.1,3.8c-3.4,0-6.7-1.3-9.1-3.8
				c-5-5-5-13.2,0-18.2c0.7-0.7,0.7-1.8,0-2.5l-14.6-14.6l30.9-30.9c0.7-0.7,0.7-1.8,0-2.5l-43.3-43.3c-0.7-0.7-1.9-0.7-2.5,0
				c-2.4,2.4-5.7,3.8-9.1,3.8s-6.7-1.3-9.1-3.8c-2.4-2.4-3.8-5.7-3.8-9.1c0-3.4,1.3-6.7,3.8-9.1c0.3-0.3,0.5-0.8,0.5-1.3
				c0-0.5-0.2-0.9-0.5-1.3l-43.3-43.3c-0.7-0.7-1.8-0.7-2.5,0L54.8,255.3c-0.7,0.7-0.7,1.8,0,2.5l43.3,43.3c0.7,0.7,1.9,0.7,2.5,0
				c2.4-2.4,5.7-3.8,9.1-3.8s6.7,1.3,9.1,3.8c2.4,2.4,3.8,5.7,3.8,9.1c0,3.4-1.3,6.7-3.8,9.1c-0.7,0.7-0.7,1.8,0,2.5l14.6,14.6
				l-30.9,30.9c-0.7,0.7-0.7,1.8,0,2.5l43.3,43.3c0.7,0.7,1.8,0.7,2.5,0c5-5,13.2-5,18.2,0c2.4,2.4,3.8,5.7,3.8,9.1
				c0,3.4-1.3,6.7-3.8,9.1c-0.3,0.3-0.5,0.8-0.5,1.3s0.2,0.9,0.5,1.3l43.3,43.3c0.3,0.3,0.8,0.5,1.3,0.5s0.9-0.2,1.3-0.5L447,242.7
				c0.3-0.3,0.5-0.8,0.5-1.3S447.3,240.5,447,240.2z M351.3,269.5l19.4,19.4L211.2,448.5L191,428.3c2-11-1.5-22.2-9.4-30.1
				c-7.9-7.9-19.1-11.4-30.1-9.4l-28.6-28.6l159.6-159.6l5.8,5.8c0.7,0.7,1.8,0.7,2.5,0l16.8-16.8c0.3-0.3,0.5-0.8,0.5-1.3
				s-0.2-0.9-0.5-1.3l-5.8-5.8l28.2-28.2l28.6,28.6c-2,11,1.5,22.2,9.4,30.1c7.9,7.9,19.1,11.4,30.1,9.4l20.2,20.2l-28.2,28.2
				l-19.4-19.4c-0.7-0.7-1.9-0.7-2.5,0L351.3,267c-0.3,0.3-0.5,0.8-0.5,1.3C350.8,268.8,351,269.2,351.3,269.5z M234.6,88.6l5.8,5.8
				c0.7,0.7,1.8,0.7,2.5,0l16.8-16.8c0.3-0.3,0.5-0.8,0.5-1.3c0-0.5-0.2-0.9-0.5-1.3l-5.8-5.8l28.2-28.2l28.6,28.6
				c-2,11,1.5,22.2,9.4,30.1c7.9,7.9,19.1,11.4,30.1,9.4l20.2,20.2l-17.1,17.1l-13.7-13.7c-0.7-0.7-1.8-0.7-2.5,0L148.4,321.5
				l-5.2-5.2c2-11-1.5-22.2-9.4-30.1c-7.9-7.9-19.1-11.4-30.1-9.4l-28.6-28.6L234.6,88.6z"/>
			
				<rect x="304.9" y="206.8" transform="matrix(0.7071 -0.7071 0.7071 0.7071 -59.7078 287.2099)" class="st0" width="23.8" height="17.9"/>
			
				<rect x="330.2" y="232" transform="matrix(0.7071 -0.7071 0.7071 0.7071 -70.1668 312.4601)" class="st0" width="23.8" height="17.9"/>
		</g>
	</g>
</g>
</svg>
