<?xml version="1.0" encoding="utf-8"?>
<!-- Generator: Adobe Illustrator 23.0.1, SVG Export Plug-In . SVG Version: 6.00 Build 0)  -->
<svg version="1.1" id="レイヤー_17" xmlns="http://www.w3.org/2000/svg" xmlns:xlink="http://www.w3.org/1999/xlink" x="0px"
	 y="0px" width="500px" height="500px" viewBox="0 0 500 500" style="enable-background:new 0 0 500 500;" xml:space="preserve">
<style type="text/css">
	.st0{fill:#FFF;}
</style>
<g>
	<path class="st0" d="M479.5,102.3c-1.4-44-39.9-79.4-87.2-79.4c-6.4,0-11.5,4.8-11.5,10.8v34.7h-344c-6.4,0-11.5,4.8-11.5,10.8
		v372.5c0,6,5.2,10.8,11.5,10.8h355.5c47.5,0,86.2-35.7,87.2-79.9c0,0,0.1,0,0.1-0.1v-1.8v-276v-1.8
		C479.5,102.7,479.5,102.5,479.5,102.3z M392.2,440.8H48.3V79.3h332.4v53.1H90.5V390h311.7v-11h-79.7v-26.4h-23V379h-186v-68.3H197
		v20.2h23v-20.2v-0.2v-31h-23v20.2h-83.5v-68.1H140v-11h-26.4v-77.3H197v77.3h-19.5v11h31H220h20.5v-11H220v-77.3h79.5v77.3h-19.1
		v11h19.1v61.9h42.4v-11h-19.4v-40.4v-10.8v-88.1h58.2v151.7v14.6c0,6,5.2,10.8,11.5,10.8c35.4,0,64.3,27,64.3,60.2
		C456.5,413.8,427.7,440.8,392.2,440.8z M456.5,325.4c-13.5-13.8-32-23.2-52.7-25.8V79.1V45.4c30,5.1,52.7,29.7,52.7,59.2V325.4z"/>
</g>
</svg>
