<?xml version="1.0" encoding="utf-8"?>
<!-- Generator: Adobe Illustrator 23.0.1, SVG Export Plug-In . SVG Version: 6.00 Build 0)  -->
<svg version="1.1" id="レイヤー_7" xmlns="http://www.w3.org/2000/svg" xmlns:xlink="http://www.w3.org/1999/xlink" x="0px"
	 y="0px" width="500px" height="500px" viewBox="0 0 500 500" style="enable-background:new 0 0 500 500;" xml:space="preserve">
<style type="text/css">
	.st0{fill:#C30D23;}
</style>
<g>
	<path class="st0" d="M381.1,374.2l25-294.4l0-1.1c0-13.8-11.2-25-25-25h-34.9l-0.3-18.1C345.8,24.8,337,16,326.1,16H173.9
		c-10.9,0-19.7,8.8-19.8,19.6l-0.3,18.1h-34.9c-13.8,0-25,11.2-25,25v0.5l25,294.9c0.3,13.3,11.1,24.1,24.4,24.4l-47.4,71.6
		l15.2,13.8l56.5-85.4h166.1l56.5,85.4l15.2-13.8l-47.4-71.6C370.8,397.5,380.8,387.1,381.1,374.2z M179,24.1h142l0.2,29.6H178.8
		L179,24.1z M113.3,61.9h273.5l-24.9,312.9l-223.5,0.5L113.3,61.9z"/>
	<path class="st0" d="M175.9,256.5h148.2c10.9,0,19.7-8.8,19.8-19.6l2-108.5l0-0.2c0-10.9-8.9-19.8-19.8-19.8H173.9
		c-10.9,0-19.8,8.9-19.8,19.8l2,108.7C156.2,247.7,165,256.5,175.9,256.5z M320.8,116.4l-1.8,115H181l-1.8-115H320.8z"/>
	<path class="st0" d="M187.6,348.5c18.5,0,33.5-15,33.5-33.5s-15-33.5-33.5-33.5s-33.5,15-33.5,33.5S169.1,348.5,187.6,348.5z
		 M187.6,301.6c7.4,0,13.4,6,13.4,13.4s-6,13.4-13.4,13.4c-7.4,0-13.4-6-13.4-13.4S180.2,301.6,187.6,301.6z"/>
	<path class="st0" d="M320.8,348.5c18.5,0,33.5-15,33.5-33.5s-15-33.5-33.5-33.5c-18.5,0-33.5,15-33.5,33.5S302.3,348.5,320.8,348.5
		z M320.8,301.6c7.4,0,13.4,6,13.4,13.4s-6,13.4-13.4,13.4c-7.4,0-13.4-6-13.4-13.4S313.4,301.6,320.8,301.6z"/>
	<rect x="187.6" y="414" class="st0" width="124.8" height="8.1"/>
	<rect x="162.6" y="457" class="st0" width="174.8" height="19.4"/>
</g>
</svg>
