<?xml version="1.0" encoding="utf-8"?>
<!-- Generator: Adobe Illustrator 23.0.1, SVG Export Plug-In . SVG Version: 6.00 Build 0)  -->
<svg version="1.1" id="レイヤー_7" xmlns="http://www.w3.org/2000/svg" xmlns:xlink="http://www.w3.org/1999/xlink" x="0px"
	 y="0px" width="500px" height="500px" viewBox="0 0 500 500" style="enable-background:new 0 0 500 500;" xml:space="preserve">
<style type="text/css">
	.st0{fill:#C30D23;}
</style>
<g>
	<path class="st0" d="M458.5,475.6H56.4c-11.3,0-20.5-9.2-20.5-20.5V53c0-11.3,9.2-20.5,20.5-20.5h402.2c11.3,0,20.5,9.2,20.5,20.5
		v402.2C479,466.5,469.8,475.6,458.5,475.6z M56.4,42.8v412.4h402.2l0-412.4H56.4z"/>
	<g>
		<path class="st0" d="M167.7,101.4h87.1c68.8,0,114.6,22.9,114.6,89.6c0,64.6-45.8,94.6-112.5,94.6h-50.4v121.3h-38.8V101.4z
			 M251.9,254.3c53.8,0,79.2-31.9,79.2-75.6c0-44.2-27.1-58.3-80.8-58.3h-43.8v134H251.9z"/>
	</g>
</g>
</svg>
