<?xml version="1.0" encoding="utf-8"?>
<!-- Generator: Adobe Illustrator 23.0.1, SVG Export Plug-In . SVG Version: 6.00 Build 0)  -->
<svg version="1.1" id="レイヤー_17" xmlns="http://www.w3.org/2000/svg" xmlns:xlink="http://www.w3.org/1999/xlink" x="0px"
	 y="0px" width="500px" height="500px" viewBox="0 0 500 500" style="enable-background:new 0 0 500 500;" xml:space="preserve">
<style type="text/css">
	.st0{fill:#54493a;}
</style>
<path class="st0" d="M250,268.1c-48,0-87.1-39.1-87.1-87.1S202,93.9,250,93.9s87.1,39.1,87.1,87.1S298,268.1,250,268.1z M250,109.3
	c-35.9,0-65,29.2-65,65s29.2,71.7,65,71.7s65-35.8,65-71.7S285.9,109.3,250,109.3z"/>
<path class="st0" d="M250.1,483.3l-7.8-7.7c-1.5-1.5-37.5-37.1-73.9-91.1c-21.5-31.8-38.6-63.4-51-93.9
	c-15.6-38.5-23.5-75.4-23.5-109.6c0-86.1,70-156.1,156.1-156.1s156.1,70,156.1,156.1c0,60.9-25,129-74.4,202.5
	c-36.4,54.3-72.4,90.5-73.9,92L250.1,483.3z M250,41.4c-73.9,0-134,60.1-134,134c0,71.4,38.3,148.7,70.4,196.3
	c25.4,37.7,51.1,66.6,63.6,80c12.5-13.5,38.2-42.9,63.7-80.9C345.7,323,384,245.6,384,175.5C384,101.6,323.9,41.4,250,41.4z"/>
</svg>
