<?xml version="1.0" encoding="utf-8"?>
<!-- Generator: Adobe Illustrator 23.0.1, SVG Export Plug-In . SVG Version: 6.00 Build 0)  -->
<svg version="1.1" id="レイヤー_7" xmlns="http://www.w3.org/2000/svg" xmlns:xlink="http://www.w3.org/1999/xlink" x="0px"
	 y="0px" width="500px" height="500px" viewBox="0 0 500 500" style="enable-background:new 0 0 500 500;" xml:space="preserve">
<style type="text/css">
	.st0{fill:#C30D23;}
</style>
<path class="st0" d="M256,268.5c-49.5,0-89.8-40.3-89.8-89.8s40.3-89.8,89.8-89.8s89.8,40.3,89.8,89.8S305.5,268.5,256,268.5z
	 M256,104.8c-37,0-67.1,30.1-67.1,67.1s30.1,73.9,67.1,73.9s67.1-36.9,67.1-73.9S293,104.8,256,104.8z"/>
<path class="st0" d="M256.1,490.5l-8-7.9c-1.6-1.5-38.6-38.3-76.3-94c-22.2-32.8-39.8-65.4-52.6-96.8C103.1,252,95,214,95,178.7
	c0-88.8,72.2-161,161-161s161,72.2,161,161c0,62.8-25.8,133-76.7,208.9c-37.6,56-74.6,93.3-76.2,94.9L256.1,490.5z M256,34.8
	c-76.2,0-138.3,62-138.3,138.3c0,73.6,39.5,153.3,72.6,202.5c26.2,38.9,52.7,68.7,65.6,82.5c12.9-14,39.4-44.3,65.7-83.4
	c33.1-49.4,72.6-129.2,72.6-201.5C394.3,96.8,332.2,34.8,256,34.8z"/>
</svg>
