<?xml version="1.0" encoding="utf-8"?>
<!-- Generator: Adobe Illustrator 23.0.1, SVG Export Plug-In . SVG Version: 6.00 Build 0)  -->
<svg version="1.1" id="レイヤー_17" xmlns="http://www.w3.org/2000/svg" xmlns:xlink="http://www.w3.org/1999/xlink" x="0px"
	 y="0px" width="500px" height="500px" viewBox="0 0 500 500" style="enable-background:new 0 0 500 500;" xml:space="preserve">
<style type="text/css">
	.st0{fill:#FFF;}
</style>
<g>
	<path class="st0" d="M250.9,475.6c-60.5,0-117.4-23.6-160.2-66.4S24.3,309.5,24.3,249S47.9,131.6,90.7,88.8s99.7-66.4,160.2-66.4
		S368.3,46,411.1,88.8s66.4,99.7,66.4,160.2s-23.6,117.4-66.4,160.2S311.4,475.6,250.9,475.6z M250.9,32.4
		C137,32.4,44.3,125.1,44.3,239S137,455.6,250.9,455.6S457.4,352.9,457.4,239S364.8,32.4,250.9,32.4z"/>
	<path class="st0" d="M257.4,258c-5.6,1.7-12,0.3-16.4-4.1s-5.8-10.8-4.1-16.4l-9.4-9.4l-81.1,120.5l120.5-81.1L257.4,258z"/>
	<path class="st0" d="M264.3,230.6c5.8,5.8,6.3,14.7,1.8,21.2l8.2,8.2l81.1-120.5l-120.5,81.1l8.2,8.2
		C249.5,224.3,258.5,224.8,264.3,230.6z"/>
</g>
</svg>
