<?xml version="1.0" encoding="utf-8"?>
<!-- Generator: Adobe Illustrator 23.0.1, SVG Export Plug-In . SVG Version: 6.00 Build 0)  -->
<svg version="1.1" id="レイヤー_17" xmlns="http://www.w3.org/2000/svg" xmlns:xlink="http://www.w3.org/1999/xlink" x="0px"
	 y="0px" width="500px" height="500px" viewBox="0 0 500 500" style="enable-background:new 0 0 500 500;" xml:space="preserve">
<style type="text/css">
	.st0{fill:#54493a;}
</style>
<g>
	<path class="st0" d="M455.1,57.7h-99.4V31c0-6.5-5.3-11.7-11.7-11.7c-6.5,0-11.7,5.3-11.7,11.7v26.6h-70.5V29.4
		c0-6.5-5.3-11.7-11.7-11.7c-6.5,0-11.7,5.3-11.7,11.7v28.3h-70.5V31c0-6.5-5.3-11.7-11.7-11.7c-6.5,0-11.7,5.3-11.7,11.7v26.6H44.9
		c-6.5,0-11.7,5.3-11.7,11.7V456c0,6.5,5.3,11.7,11.7,11.7h410.2c6.5,0,11.7-5.3,11.7-11.7V69.4C466.9,62.9,461.6,57.7,455.1,57.7z
		 M443.4,444.4H56.6v-375h87.7v25.2c0,6.5,5.3,11.7,11.7,11.7c6.5,0,11.7-5.3,11.7-11.7V69.4h70.5v23.5c0,6.5,5.3,11.7,11.7,11.7
		c6.5,0,11.7-5.3,11.7-11.7V69.4h70.5v25.2c0,6.5,5.3,11.7,11.7,11.7c6.5,0,11.7-5.3,11.7-11.7V69.4h87.7v375H443.4z"/>
	<rect x="122.7" y="162" class="st0" width="66.6" height="43.1"/>
	<rect x="216.7" y="162" class="st0" width="66.6" height="43.1"/>
	<rect x="310.7" y="162" class="st0" width="66.6" height="43.1"/>
	<rect x="122.7" y="244.7" class="st0" width="66.6" height="43.1"/>
	<rect x="216.7" y="244.7" class="st0" width="66.6" height="43.1"/>
	<rect x="310.7" y="244.7" class="st0" width="66.6" height="43.1"/>
	<rect x="122.7" y="327.5" class="st0" width="66.6" height="43.1"/>
	<rect x="216.7" y="327.5" class="st0" width="66.6" height="43.1"/>
	<rect x="310.7" y="327.5" class="st0" width="66.6" height="43.1"/>
</g>
</svg>
