<?xml version="1.0" encoding="utf-8"?>
<!-- Generator: Adobe Illustrator 23.0.1, SVG Export Plug-In . SVG Version: 6.00 Build 0)  -->
<svg version="1.1" id="レイヤー_11" xmlns="http://www.w3.org/2000/svg" xmlns:xlink="http://www.w3.org/1999/xlink" x="0px"
	 y="0px" width="500px" height="500px" viewBox="0 0 500 500" style="enable-background:new 0 0 500 500;" xml:space="preserve">
<style type="text/css">
	.st0{fill:none;stroke:#4d88be;stroke-width:20;stroke-linecap:round;stroke-linejoin:round;stroke-miterlimit:10;}
</style>
<path class="st0" d="M98.6,463.1h139.7V310.9h-50.2v-50.2h50.2V198c0-34.6,28.1-62.7,62.7-62.7h62.7v50.2h-50.2
	c-13.8,0-25.1,11.3-25.1,25.1v50.2h73l-8.4,50.2h-64.6v152.2h112.9c34.6,0,62.7-28.1,62.7-62.7V97.6c0-34.6-28.1-62.7-62.7-62.7
	H98.6C64,34.9,35.9,63,35.9,97.6v302.8C35.9,435,64,463.1,98.6,463.1z"/>
</svg>
