<?xml version="1.0" encoding="utf-8"?>
<!-- Generator: Adobe Illustrator 23.0.1, SVG Export Plug-In . SVG Version: 6.00 Build 0)  -->
<svg version="1.1" id="レイヤー_1" xmlns="http://www.w3.org/2000/svg" xmlns:xlink="http://www.w3.org/1999/xlink" x="0px"
	 y="0px" width="86.1px" height="53px" viewBox="0 0 86.1 53" style="enable-background:new 0 0 86.1 53;" xml:space="preserve">
<style type="text/css">
	.st0{fill:#FFF;}
</style>
	<filter id="dropshadow" height="130%">
        <feGaussianBlur in="SourceAlpha" stdDeviation="1"/> <!-- stdDeviation is how much to blur -->
        <feOffset dx="1" dy="1" result="offsetblur"/> <!-- how much to offset -->
        <feComponentTransfer>
            <feFuncA type="linear" slope="0.5"/> <!-- slope is the opacity of the shadow -->
        </feComponentTransfer>
        <feMerge>
            <feMergeNode/> <!-- this contains the offset blurred image -->
            <feMergeNode in="SourceGraphic"/> <!-- this contains the element that the filter is applied to -->
        </feMerge>
    </filter>
<g style="filter:url(#dropshadow)">
	<g id="シェイプ_789_4_">
		<g>
			<path class="st0" d="M44.6,24.3c0-0.6-0.6-1.3-1.4-1.4c-0.5,0-1.1,0.3-1.3,0.8c-0.3,0.7,0.3,1.3,0.8,1.2c0.3,0,0.5-0.2,0.5-0.2
				c0.1-0.1,0.3,0,0.1,0.1c-0.3,0.4-1.2,0.4-1.2,0.4s-0.4,0.5-1.2,0.4c-0.9-0.1-1.3-0.6-1.3-0.6s-0.7,0-1.3-0.1
				c-0.7-0.2-1-0.6-1-0.6s-0.5,0.1-1.3,0.1c-0.9,0-1.5-0.4-1.5-0.4s1.1,0.9,1.7,1.3c0.6,0.4,1.5,1,3,1.4c1.1,0.3,2.5,0.3,3.6-0.2
				C44.3,25.8,44.5,24.9,44.6,24.3z M39,11.1c-0.9-0.1-1.9-0.7-2.8-0.1c-0.3,0.2-0.4,0.4-0.4,0.7c0,0.9,1.6,1.1,3,0.4
				c3.7,0.9,7.5,0.8,9.8-0.1l0,0c0,0,0.1,0,0.1,0c0,0,0.1,0,0.1,0c0.2-0.1,0.5-0.2,0.8-0.4c0.6-0.4,0.6-0.8,0.2-1.3
				c-0.4-0.5-1.1-0.9-2.2-0.9c-0.1,0-0.1,0.1-0.1,0.2c0.2,0.2,0.2,0.4-0.1,0.6c-0.8,0.4-3.5,1.6-7.1,1c1.6-0.9,3.1-2.1,3.9-3.4
				c0.2-0.3,0.2-0.6,0.1-0.8c-0.2-0.3-0.7-0.6-1.3-0.6c-0.5,0-1,0.1-1.6,0.5c-0.1,0.1-0.1,0.2,0,0.2c0.3,0.1,0.5,0.3,0.1,0.9
				C40.7,9.5,40.1,10.1,39,11.1z M36.4,11.5c0.3-0.4,1,0.1,1.5,0.2C36.9,12.3,36.1,11.9,36.4,11.5z M47,17c1.8,0.1,2.7,0.5,2.7,0.5
				c0.5-0.1,0.9-0.7,0.9-1.2c0-0.5-0.4-1.2-0.9-1.2c0,0-0.9,0.4-2.7,0.5c-0.1,0-0.3,0-0.5,0c0-0.4,0-0.9,0-1.2
				c0-0.5,0.5-0.8,0.1-1.1C46.4,13.2,46,13,45.7,13c-1.5-0.3-1.3,0.4-1.1,0.6c0.2,0.2,0.3,0.6,0.3,0.8c0,0.4,0,0.9,0,1.3
				c-0.5,0-1.1,0-1.7,0c-0.6,0-1.1,0-1.7,0c0-0.4,0-0.9,0-1.3c0-0.5,0.5-0.8,0.1-1.1C41.4,13.2,41,13,40.7,13
				c-1.5-0.3-1.3,0.4-1.1,0.6c0.2,0.2,0.3,0.6,0.3,0.8c0,0.4,0,0.8,0,1.3c-0.2,0-0.3,0-0.5,0c-1.8-0.1-2.7-0.5-2.7-0.5
				c-0.5,0.1-0.9,0.7-0.9,1.2c0,0.5,0.4,1.2,0.9,1.2c0,0,0.9-0.4,2.7-0.5c0.1,0,0.3,0,0.5,0c0,0.4,0,0.8,0,1.1
				c0,2.2-0.4,2.4-0.4,2.4c0,0.5,0.8,0.9,1.3,0.9c0.5,0,1.3-0.4,1.3-0.9c0,0-0.4-0.3-0.4-2.4c0-0.4,0-0.8,0-1.2c0.5,0,1.1,0,1.7,0
				c0.6,0,1.2,0,1.7,0c0,0.4,0,0.8,0,1.2c0,2.2-0.4,2.4-0.4,2.4c0,0.5,0.8,0.9,1.3,0.9s1.3-0.4,1.3-0.9c0,0-0.4-0.3-0.4-2.4
				c0-0.3,0-0.7,0-1.1C46.7,17,46.9,17,47,17z M50.2,21.5c-0.3-0.5-1.2-0.7-1.9-0.3c-0.4,0.3-0.7,0.9-0.6,1.4c0.2,0.7,1,0.8,1.3,0.5
				c0.3-0.2,0.3-0.4,0.3-0.5c0-0.1,0.2-0.2,0.2,0.1c0,0.5-0.8,1-0.8,1s0,0.6-0.8,1c-0.8,0.4-1.4,0.2-1.4,0.2s-0.5,0.5-1.1,0.7
				c-0.7,0.3-1.2,0.1-1.2,0.1s-0.3,0.4-1,0.9c-0.7,0.5-1.5,0.6-1.5,0.6s1.4,0.1,2.2,0.1c0.7,0,1.7-0.1,3.2-0.6
				c1.1-0.4,2.2-1.2,2.8-2.2C50.8,22.9,50.5,22.1,50.2,21.5z M53.1,16c-0.6-0.2-1.4,0.1-1.7,0.9c-0.2,0.5-0.1,1.1,0.4,1.5
				c0.6,0.5,1.3,0.1,1.4-0.4c0.1-0.3,0-0.5,0-0.6c0-0.1,0.1-0.2,0.2-0.1c0.3,0.4,0,1.2,0,1.2s0.3,0.5,0,1.3c-0.4,0.8-1,1-1,1
				s-0.2,0.7-0.5,1.2c-0.4,0.6-0.9,0.8-0.9,0.8s0,0.5-0.3,1.3c-0.3,0.8-0.8,1.4-0.8,1.4s1.2-0.8,1.8-1.2c0.6-0.4,1.4-1.1,2.3-2.4
				c0.7-1,1.1-2.3,0.9-3.4C54.4,16.7,53.7,16.3,53.1,16z M54.9,10.9c-1.2-1.2-2.1-1.2-2.7-1c-0.6,0.2-1.1,1-0.9,1.7
				c0.1,0.5,0.6,0.9,1.1,1c0.8,0,1.1-0.7,0.9-1.1C53.3,11.1,53.1,11,53,11c-0.1-0.1-0.1-0.2,0.1-0.2c0.5,0.2,0.7,1,0.7,1
				s0.6,0.2,0.7,1c0.2,0.9-0.2,1.4-0.2,1.4s0.3,0.7,0.3,1.2c0.1,0.7-0.3,1.2-0.3,1.2s0.3,0.4,0.5,1.2c0.2,0.9,0.1,1.6,0.1,1.6
				s0.5-1.3,0.7-2c0.2-0.7,0.5-1.7,0.4-3.3C56.1,13.1,55.7,11.7,54.9,10.9z M47.9,5.4c-0.4,0.5-0.3,1.4,0.3,1.9
				c0.4,0.3,1.1,0.4,1.5,0.1c0.6-0.4,0.5-1.2,0.1-1.4c-0.3-0.2-0.5-0.2-0.6-0.2c-0.1,0-0.2-0.1,0-0.2C49.7,5.5,50.4,6,50.4,6
				s0.6-0.1,1.2,0.4c0.6,0.6,0.7,1.3,0.7,1.3s0.6,0.4,1,0.8c0.5,0.5,0.5,1.1,0.5,1.1s0.5,0.2,1.1,0.7c0.7,0.6,1,1.2,1,1.2
				s-0.3-1.4-0.6-2.1c-0.3-0.7-0.6-1.6-1.6-2.9c-0.7-0.9-1.8-1.7-3-2C49,4.3,48.3,4.9,47.9,5.4z M41.7,4.3c0,0.6,0.6,1.3,1.4,1.4
				c0.5,0,1.1-0.3,1.3-0.8c0.3-0.7-0.3-1.3-0.8-1.2c-0.3,0-0.5,0.2-0.5,0.2c-0.1,0.1-0.3,0-0.1-0.1c0.3-0.4,1.2-0.4,1.2-0.4
				s0.4-0.5,1.2-0.4c0.9,0.1,1.3,0.6,1.3,0.6s0.7,0,1.3,0.1c0.7,0.2,1,0.6,1,0.6s0.5-0.1,1.3-0.1c0.9,0,1.5,0.4,1.5,0.4
				s-1.1-0.9-1.7-1.3c-0.6-0.4-1.5-1-3-1.4c-1.1-0.3-2.5-0.3-3.6,0.2C42,2.8,41.8,3.7,41.7,4.3z M36.2,7c0.3,0.5,1.2,0.7,1.9,0.3
				c0.4-0.3,0.7-0.9,0.6-1.4c-0.2-0.7-1-0.8-1.3-0.5C37,5.6,37,5.8,36.9,5.9c0,0.1-0.2,0.2-0.2-0.1c0-0.5,0.8-1,0.8-1s0-0.6,0.8-1
				c0.8-0.4,1.4-0.2,1.4-0.2s0.5-0.5,1.1-0.7C41.4,2.7,42,2.8,42,2.8s0.3-0.4,1-0.9c0.7-0.5,1.5-0.6,1.5-0.6s-1.4-0.1-2.2-0.1
				c-0.7,0-1.7,0.1-3.2,0.6c-1.1,0.4-2.2,1.2-2.8,2.2C35.5,5.7,35.8,6.5,36.2,7z M33.2,12.5c0.6,0.2,1.4-0.1,1.7-0.9
				c0.2-0.5,0.1-1.1-0.4-1.5c-0.6-0.5-1.3-0.1-1.4,0.4c-0.1,0.3,0,0.5,0,0.6c0,0.1-0.1,0.2-0.2,0.1c-0.3-0.4,0-1.2,0-1.2
				s-0.3-0.5,0-1.3c0.4-0.8,1-1,1-1s0.2-0.7,0.5-1.2c0.4-0.6,0.9-0.8,0.9-0.8s0-0.5,0.3-1.3C36.1,3.6,36.7,3,36.7,3
				s-1.2,0.8-1.8,1.2c-0.6,0.4-1.4,1.1-2.3,2.4c-0.7,1-1.1,2.3-0.9,3.4C31.9,11.8,32.6,12.3,33.2,12.5z M34.1,18.7
				c0.6-0.2,1.1-1,0.9-1.7c-0.1-0.5-0.6-0.9-1.1-1c-0.8,0-1.1,0.7-0.9,1.1c0.1,0.3,0.3,0.4,0.4,0.5c0.1,0.1,0.1,0.2-0.1,0.2
				c-0.5-0.2-0.7-1-0.7-1s-0.6-0.2-0.7-1c-0.2-0.9,0.2-1.4,0.2-1.4s-0.3-0.7-0.3-1.2c-0.1-0.7,0.3-1.2,0.3-1.2s-0.3-0.4-0.5-1.2
				C31.2,9.8,31.3,9,31.3,9s-0.5,1.3-0.7,2c-0.2,0.7-0.5,1.7-0.4,3.3c0,1.2,0.5,2.5,1.3,3.3C32.6,18.9,33.5,18.9,34.1,18.7z
				 M38.4,23.2c0.4-0.5,0.3-1.4-0.3-1.9c-0.4-0.3-1.1-0.4-1.5-0.1c-0.6,0.4-0.5,1.2-0.1,1.4c0.3,0.2,0.5,0.2,0.6,0.2
				c0.1,0,0.2,0.1,0,0.2c-0.5,0.1-1.2-0.4-1.2-0.4s-0.6,0.1-1.2-0.4c-0.6-0.6-0.7-1.3-0.7-1.3s-0.6-0.4-1-0.8
				c-0.5-0.5-0.5-1.1-0.5-1.1s-0.5-0.2-1.1-0.7c-0.7-0.6-1-1.2-1-1.2s0.3,1.4,0.6,2.1c0.3,0.7,0.6,1.6,1.6,2.9c0.7,0.9,1.8,1.7,3,2
				C37.3,24.2,38,23.7,38.4,23.2z"/>
		</g>
	</g>
	<g id="Grand_Opening_February_26th_x2C__2019_2_">
		<g>
			<path class="st0" d="M21.3,36c0-0.1-0.1-0.1-0.2-0.1h-1.8c-0.1,0-0.2,0-0.2,0.1c0,0.1,0.1,0.1,0.2,0.1c0.6,0,0.8,0.1,0.8,0.8
				c0,0.5-0.1,0.7-0.3,1c-0.3,0.3-0.6,0.4-0.9,0.4c-1.2,0-1.8-1.3-1.8-2.8c0-1.4,0.6-2.8,1.7-2.8c0.7,0,1.4,0.5,1.8,1.2
				c0.1,0.2,0.1,0.2,0.2,0.2c0.1,0,0.1,0,0.1-0.1c0,0-0.3-0.9-0.3-1c-0.2-0.5-0.2-0.5-0.3-0.5c-0.1,0-0.1,0-0.2,0.1
				c-0.1,0.1-0.1,0.1-0.2,0.1c-0.1,0-0.1,0-0.4-0.1c-0.4-0.1-0.6-0.1-0.8-0.1c-1.4,0-2.4,1.3-2.4,3.1c0,1.7,0.9,3,2.5,3
				c0.2,0,0.5,0,1.1-0.2c0.1-0.1,0.3-0.1,0.5-0.1c0.3,0,0.3,0,0.3-0.3c0-1.2,0-1.4,0.1-1.5c0.1-0.2,0.3-0.2,0.4-0.2
				C21.2,36.1,21.3,36,21.3,36z M24.3,34.4c-0.6,0-1.1,0.6-1.1,0.7C23,35.3,23,35.3,23,35.3c-0.1,0-0.1,0-0.1-0.5v-0.4c0,0,0,0,0,0
				c0,0-0.8,0.2-0.9,0.3c-0.4,0.1-0.4,0.1-0.4,0.2c0,0,0,0.1,0.1,0.1c0.1,0,0.3-0.1,0.4-0.1c0.1,0,0.2,0.1,0.2,0.2
				c0,0.1,0,1.3,0,1.6c0,1.1,0,1.2-0.1,1.3c-0.1,0.2-0.3,0.2-0.4,0.2c-0.2,0-0.3,0-0.3,0.1c0,0.1,0.2,0.1,0.2,0.1h1.6
				c0.1,0,0.2,0,0.2-0.1c0-0.1-0.1-0.1-0.2-0.1c-0.6,0-0.6-0.1-0.6-0.9c0-1.2,0-1.4,0.2-1.7c0.2-0.3,0.5-0.5,0.7-0.5
				c0.1,0,0.2,0.1,0.2,0.1c0.1,0.1,0.1,0.2,0.3,0.2c0.2,0,0.4-0.2,0.4-0.4C24.7,34.6,24.6,34.4,24.3,34.4z M27.1,36.2
				c-0.5,0.1-1.8,0.5-1.8,1.5c0,0.6,0.5,0.8,1,0.8c0.4,0,0.7-0.1,1.1-0.4c0.1-0.1,0.1-0.1,0.2-0.1c0.1,0,0.1,0.1,0.1,0.1
				c0.1,0.2,0.3,0.4,0.5,0.4c0.3,0,0.7-0.4,0.7-0.5c0,0,0,0,0,0c0,0-0.1,0-0.1,0c0,0-0.2,0.1-0.3,0.1c-0.3,0-0.3-0.3-0.3-0.7
				c0-0.3,0-1.6,0-1.9c0-0.8-0.7-1.1-1.3-1.1c-0.7,0-1.4,0.4-1.4,0.8c0,0.2,0.2,0.4,0.4,0.4c0.3,0,0.4-0.3,0.4-0.5
				c0-0.1,0.1-0.5,0.6-0.5c0.4,0,0.8,0.3,0.8,0.9C27.6,36,27.6,36,27.1,36.2z M27.6,36.6c0,0.9,0,1-0.1,1.1
				c-0.1,0.3-0.6,0.5-0.9,0.5c-0.6,0-0.7-0.4-0.7-0.6c0-0.8,1.2-1.3,1.5-1.3C27.6,36.3,27.6,36.4,27.6,36.6z M33,38.1
				c-0.3,0-0.3-0.2-0.4-0.2c-0.1-0.1-0.1-1-0.1-1.2c0-1.2,0-1.4-0.1-1.7c-0.1-0.2-0.3-0.5-0.9-0.5c-0.3,0-0.6,0.1-0.9,0.3
				c0,0-0.3,0.2-0.3,0.2c-0.1,0-0.1-0.1-0.1-0.2c0-0.3,0-0.4-0.1-0.4c0,0-0.7,0.2-0.8,0.2c-0.3,0.1-0.3,0.1-0.3,0.1s0,0.1,0.1,0.1
				c0,0,0.2,0,0.2,0c0.4,0,0.4,0.2,0.4,1.5c0,0.3,0,1.3-0.1,1.5c0,0.1-0.2,0.2-0.4,0.2c-0.1,0-0.2,0-0.2,0.1c0,0,0,0.1,0.2,0.1h1.5
				c0.2,0,0.2-0.1,0.2-0.1c0-0.1-0.1-0.1-0.2-0.1c-0.2,0-0.3-0.1-0.4-0.4c0-0.1,0-1.1,0-1.3c0-0.9,0-1,0.2-1.3
				c0.2-0.2,0.6-0.4,0.8-0.4c0.1,0,0.4,0,0.5,0.3c0.2,0.3,0.2,0.6,0.2,1.3c0,1.3,0,1.4-0.1,1.6c-0.1,0.1-0.2,0.1-0.4,0.2
				c0,0-0.1,0-0.1,0.1c0,0,0,0.1,0.1,0.1H33c0.1,0,0.2,0,0.2-0.1C33.2,38.1,33.1,38.1,33,38.1z M37.8,38.2c0-0.1-0.1-0.1-0.3-0.1
				c-0.5,0-0.5-0.5-0.5-0.9c0-0.7,0-3.6,0-4.1c0-0.1,0-0.6,0-0.6c0,0,0,0-0.1,0c0,0-0.8,0.2-0.9,0.3c-0.3,0.1-0.4,0.1-0.4,0.2
				c0,0,0,0.1,0.1,0.1c0,0,0.2,0,0.2,0c0.5,0,0.5,0.6,0.5,0.9c0,0.1,0,0.6,0,0.7c0,0.1,0,0.2-0.1,0.2c-0.1,0-0.4-0.2-0.5-0.2
				c-0.2-0.1-0.3-0.1-0.4-0.1c-0.7,0-1.7,0.5-1.7,2c0,1,0.4,2,1.6,2c0.2,0,0.5,0,0.8-0.2c0,0,0.2-0.2,0.3-0.2c0,0,0.1,0,0.1,0.2
				c0,0.1,0.1,0.1,0.2,0.1h1C37.7,38.3,37.8,38.3,37.8,38.2z M36.4,37.5c-0.1,0.6-0.6,0.7-0.9,0.7c-0.7,0-1.1-0.8-1.1-1.6
				c0-1.1,0.6-1.8,1.2-1.8c0.3,0,0.5,0.1,0.6,0.3c0.2,0.2,0.2,0.4,0.2,0.9C36.4,36.4,36.4,37.3,36.4,37.5z M46.1,35.4
				c0-1.8-1.1-3.1-2.6-3.1c-1.6,0-2.6,1.3-2.6,3.1c0,1.8,1.1,3.1,2.6,3.1C45.1,38.5,46.1,37.2,46.1,35.4z M43.5,38.2
				c-1.6,0-1.9-2-1.9-2.7c0-0.5,0.1-2.9,1.9-2.9c1.6,0,1.8,2,1.8,2.7C45.4,35.9,45.3,38.2,43.5,38.2z M46.9,39.4
				c-0.1,0-0.3,0-0.3,0.1c0,0.1,0.1,0.1,0.2,0.1h1.5c0.1,0,0.2,0,0.2-0.1c0-0.1-0.1-0.1-0.3-0.1c-0.4,0-0.4-0.4-0.4-0.5
				c0-0.6,0-0.7,0.1-0.7c0.1,0,0.2,0.1,0.3,0.1c0.1,0,0.4,0.2,0.8,0.2c1,0,1.6-1.1,1.6-2.1c0-1.2-0.8-2-1.6-2
				c-0.4,0-0.7,0.2-0.8,0.2c0,0-0.3,0.2-0.3,0.2c-0.1,0-0.1-0.1-0.1-0.2c0-0.2,0-0.2-0.1-0.2c0,0-0.9,0.3-1,0.3
				c-0.2,0-0.2,0.1-0.2,0.1c0,0,0,0.1,0.1,0.1c0.1,0,0.3-0.1,0.3-0.1c0.3,0,0.3,0.2,0.3,0.9c0,0.5,0,3.1,0,3.3
				C47.3,39.3,47.1,39.4,46.9,39.4z M48.1,35.1c0.2-0.2,0.5-0.3,0.8-0.3c0.7,0,1.1,0.8,1.1,1.7c0,0.7-0.3,1.7-1.2,1.7
				c-0.1,0-0.5,0-0.8-0.2c-0.2-0.2-0.2-0.2-0.2-1.4C47.9,35.4,47.9,35.3,48.1,35.1z M54.6,37.4c-0.1,0-0.3,0.3-0.3,0.3
				c-0.2,0.2-0.6,0.4-1,0.4c-0.7,0-1.3-0.7-1.3-1.6c0-0.3,0.2-0.3,0.3-0.3h2.1c0.2,0,0.2,0,0.2-0.2c0-0.3-0.4-1.6-1.6-1.6
				c-0.9,0-1.7,0.7-1.7,2c0,1.2,0.6,2,1.8,2c1.1,0,1.6-0.8,1.6-1C54.7,37.4,54.7,37.4,54.6,37.4z M53.1,34.6c0.7,0,1,0.8,1,1.1
				c0,0.2-0.1,0.2-0.3,0.2h-1.5c-0.1,0-0.2,0-0.2-0.2C52.1,35.6,52.3,34.6,53.1,34.6z M59.1,38.1c-0.3,0-0.3-0.2-0.4-0.2
				c-0.1-0.1-0.1-1-0.1-1.2c0-1.2,0-1.4-0.1-1.7c-0.1-0.2-0.3-0.5-0.9-0.5c-0.3,0-0.6,0.1-0.9,0.3c0,0-0.3,0.2-0.3,0.2
				s-0.1-0.1-0.1-0.2c0-0.3,0-0.4-0.1-0.4c0,0-0.7,0.2-0.8,0.2c-0.3,0.1-0.3,0.1-0.3,0.1s0,0.1,0.1,0.1c0,0,0.2,0,0.2,0
				c0.4,0,0.4,0.2,0.4,1.5c0,0.3,0,1.3-0.1,1.5c0,0.1-0.2,0.2-0.4,0.2c-0.1,0-0.2,0-0.2,0.1c0,0,0,0.1,0.2,0.1h1.5
				c0.2,0,0.2-0.1,0.2-0.1c0-0.1-0.1-0.1-0.2-0.1c-0.2,0-0.3-0.1-0.4-0.4c0-0.1,0-1.1,0-1.3c0-0.9,0-1,0.2-1.3
				c0.2-0.2,0.6-0.4,0.8-0.4c0.1,0,0.4,0,0.5,0.3c0.2,0.3,0.2,0.6,0.2,1.3c0,1.3,0,1.4-0.1,1.6c-0.1,0.1-0.2,0.1-0.4,0.2
				c0,0-0.1,0-0.1,0.1c0,0,0,0.1,0.1,0.1h1.5c0.1,0,0.2,0,0.2-0.1C59.3,38.1,59.2,38.1,59.1,38.1z M60.5,33.3c0.3,0,0.5-0.2,0.5-0.5
				s-0.2-0.5-0.5-0.5c-0.3,0-0.5,0.2-0.5,0.5S60.2,33.3,60.5,33.3z M61.1,38.1c-0.4,0-0.4-0.4-0.4-0.9c0-0.4,0-2.2,0-2.6
				c0-0.1,0-0.2-0.1-0.2c-0.1,0-0.6,0.2-0.7,0.2c-0.4,0.1-0.4,0.1-0.4,0.2s0,0.1,0.1,0.1c0,0,0.2,0,0.2,0c0.1,0,0.2,0,0.2,0.1
				c0,0.1,0,1,0,1.3c0,0.3,0,1.5-0.1,1.6c-0.1,0.2-0.2,0.2-0.3,0.2c-0.2,0-0.2,0-0.2,0.1c0,0.1,0.1,0.1,0.2,0.1h1.4
				c0.1,0,0.2,0,0.2-0.1C61.4,38.1,61.3,38.1,61.1,38.1z M63.5,38.2c0-0.1-0.1-0.1-0.2-0.1c-0.2,0-0.3-0.1-0.4-0.4
				c0-0.1,0-1.1,0-1.3c0-0.9,0-1,0.2-1.3c0.2-0.2,0.6-0.4,0.8-0.4c0.1,0,0.4,0,0.5,0.3c0.2,0.3,0.2,0.6,0.2,1.3c0,1.3,0,1.4-0.1,1.6
				c-0.1,0.1-0.2,0.1-0.4,0.2c0,0-0.1,0-0.1,0.1c0,0,0,0.1,0.1,0.1h1.5c0.1,0,0.2,0,0.2-0.1c0-0.1-0.1-0.1-0.2-0.1
				c-0.3,0-0.3-0.2-0.4-0.2c-0.1-0.1-0.1-1-0.1-1.2c0-1.2,0-1.4-0.1-1.7c-0.1-0.2-0.3-0.5-0.9-0.5c-0.3,0-0.6,0.1-0.9,0.3
				c0,0-0.3,0.2-0.3,0.2c-0.1,0-0.1-0.1-0.1-0.2c0-0.3,0-0.4-0.1-0.4c0,0-0.7,0.2-0.8,0.2c-0.3,0.1-0.3,0.1-0.3,0.1s0,0.1,0.1,0.1
				c0,0,0.2,0,0.2,0c0.4,0,0.4,0.2,0.4,1.5c0,0.3,0,1.3-0.1,1.5c0,0.1-0.2,0.2-0.4,0.2c-0.1,0-0.2,0-0.2,0.1c0,0,0,0.1,0.2,0.1h1.5
				C63.5,38.3,63.5,38.2,63.5,38.2z M68,39.7c0.2,0,2.1,0,2.1-1c0-0.9-1.3-0.9-1.8-1c-0.7,0-0.8,0-0.9-0.1c-0.1,0-0.1-0.1-0.1-0.2
				c0-0.1,0.2-0.3,0.4-0.3c0.1,0,0.5,0.1,0.5,0.1c0.8,0,1.5-0.6,1.5-1.4c0-0.2,0-0.4-0.1-0.5c0,0-0.1-0.2-0.1-0.3
				c0-0.1,0.1-0.1,0.2-0.1c0,0,0.1,0,0.1,0.1c0.1,0.1,0.2,0.3,0.4,0.3c0.2,0,0.3-0.2,0.3-0.4c0-0.2-0.2-0.4-0.5-0.4
				c-0.1,0-0.3,0-0.5,0.2c-0.1,0.1-0.2,0.2-0.3,0.2c-0.1,0-0.3-0.2-0.4-0.2c-0.1,0-0.3-0.2-0.7-0.2c-0.8,0-1.5,0.6-1.5,1.4
				c0,0.6,0.4,1,0.5,1c0,0,0.2,0.1,0.2,0.2s-0.1,0.1-0.2,0.1c-0.3,0.1-0.5,0.3-0.5,0.6c0,0.2,0.1,0.3,0.2,0.3c0,0,0.2,0.1,0.2,0.1
				S67,38.2,67,38.3c-0.3,0.1-0.7,0.3-0.7,0.7C66.3,39.6,67.4,39.7,68,39.7z M67.3,35.8c0-0.8,0.4-1.2,0.8-1.2
				c0.7,0,0.8,0.7,0.8,1.2c0,0.1,0,1.2-0.8,1.2C67.6,37,67.3,36.4,67.3,35.8z M67.2,38.3c0.2-0.1,0.3-0.1,0.6-0.1
				c1.3,0,1.6,0.2,1.6,0.6c0,0.5-0.8,0.7-1.3,0.7c-0.2,0-1.2,0-1.2-0.6C67,38.5,67.2,38.4,67.2,38.3z M11.4,42H7.5
				c-0.1,0-0.2,0-0.2,0.1c0,0.1,0.1,0.1,0.3,0.1c0.2,0,0.5,0,0.6,0.4c0,0.1,0,1.8,0,2.2c0,2.1,0,2.1,0,2.3c-0.1,0.4-0.4,0.4-0.7,0.4
				c-0.1,0-0.2,0-0.2,0.1c0,0.1,0.1,0.1,0.2,0.1h2.1c0.1,0,0.2,0,0.2-0.1c0-0.1-0.1-0.1-0.3-0.1c-0.7,0-0.7-0.3-0.7-1
				c0-0.2,0-1.4,0-1.5c0-0.1,0.2-0.1,0.2-0.1h1c0.8,0,0.8,0.5,0.8,0.9c0,0.1,0,0.2,0.1,0.2s0.1-0.1,0.1-0.2v-2.1c0,0,0-0.2-0.1-0.2
				s-0.1,0.1-0.1,0.2c0,0.6-0.2,0.8-0.8,0.8h-1c-0.1,0-0.2-0.1-0.2-0.2c0-0.1,0-1.1,0-1.2c0-0.7,0-1,0.6-1h0.9c0.7,0,1.3,0.4,1.7,1
				c0.2,0.3,0.2,0.3,0.2,0.3s0.1,0,0.1-0.1c0,0-0.3-0.8-0.3-0.9C11.9,42,11.8,42,11.4,42z M16.2,46.9c-0.1,0-0.3,0.3-0.3,0.3
				c-0.2,0.2-0.6,0.4-1,0.4c-0.7,0-1.3-0.7-1.3-1.6c0-0.3,0.2-0.3,0.3-0.3h2.1c0.2,0,0.2,0,0.2-0.2c0-0.3-0.4-1.6-1.6-1.6
				c-0.9,0-1.7,0.7-1.7,2c0,1.2,0.6,2,1.8,2c1.1,0,1.6-0.8,1.6-1C16.3,46.9,16.2,46.9,16.2,46.9z M14.6,44.1c0.7,0,1,0.8,1,1.1
				c0,0.2-0.1,0.2-0.3,0.2h-1.5c-0.1,0-0.2,0-0.2-0.2C13.6,45.1,13.9,44.1,14.6,44.1z M19.2,43.9c-0.2,0-0.4,0-0.7,0.2
				c0,0-0.3,0.1-0.3,0.1c-0.1,0-0.1-0.1-0.1-0.1v-0.8c0-1.3,0-1.3,0-1.4c0,0,0,0-0.1,0c0,0-0.6,0.2-0.9,0.2
				c-0.3,0.1-0.3,0.1-0.3,0.2c0,0,0,0.1,0.1,0.1c0,0,0.2,0,0.2,0c0.1,0,0.4,0.1,0.4,0.3c0,0.1,0,3.8,0,4.3c0,0.1,0,0.8,0,0.9
				c0,0,0,0.1,0.1,0.1c0,0,0,0,0.2-0.2c0.2-0.2,0.2-0.3,0.3-0.3c0.1,0,0.2,0.1,0.2,0.1c0.2,0.2,0.6,0.3,0.9,0.3c0.9,0,1.6-1,1.6-2.1
				C20.7,44.6,19.9,43.9,19.2,43.9z M18.9,47.6c-0.2,0-0.6-0.1-0.8-0.4C18,46.9,18,46.6,18,46.1c0-1.1,0-1.3,0.3-1.6
				c0.2-0.2,0.4-0.3,0.7-0.3c0.7,0,1.1,0.8,1.1,1.7C20,46.9,19.6,47.6,18.9,47.6z M23.9,43.9c-0.6,0-1.1,0.6-1.1,0.7
				c-0.1,0.1-0.1,0.2-0.2,0.2c-0.1,0-0.1,0-0.1-0.5v-0.4c0,0,0,0,0,0c0,0-0.8,0.2-0.9,0.3c-0.4,0.1-0.4,0.1-0.4,0.2
				c0,0,0,0.1,0.1,0.1c0.1,0,0.3-0.1,0.4-0.1c0.1,0,0.2,0.1,0.2,0.2c0,0.1,0,1.3,0,1.6c0,1.1,0,1.2-0.1,1.3
				c-0.1,0.2-0.3,0.2-0.4,0.2c-0.2,0-0.3,0-0.3,0.1c0,0.1,0.2,0.1,0.2,0.1h1.6c0.1,0,0.2,0,0.2-0.1c0-0.1-0.1-0.1-0.2-0.1
				c-0.6,0-0.6-0.1-0.6-0.9c0-1.2,0-1.4,0.2-1.7c0.2-0.3,0.5-0.5,0.7-0.5c0.1,0,0.2,0.1,0.2,0.1c0.1,0.1,0.1,0.2,0.3,0.2
				c0.2,0,0.4-0.2,0.4-0.4C24.4,44.1,24.2,43.9,23.9,43.9z M28.7,47.6c-0.4,0-0.4-0.4-0.4-0.5c0-0.2,0-1.3,0-1.5c0-0.3,0-1.6,0-1.6
				c0,0,0-0.1-0.1-0.1c0,0-0.4,0.1-0.6,0.1c-0.5,0.1-0.6,0.1-0.6,0.2c0,0,0,0.1,0.1,0.1c0,0,0.2,0,0.3,0c0.3,0,0.3,0.2,0.3,1
				c0,0.3,0,1.5-0.1,1.7c-0.1,0.3-0.6,0.6-1,0.6c-0.3,0-0.6-0.1-0.7-0.5c-0.1-0.2-0.1-0.4-0.1-0.9c0-0.2,0-2.3,0-2.3
				c0,0,0-0.1-0.1-0.1c0,0-0.5,0.1-0.7,0.2c-0.3,0.1-0.3,0.1-0.3,0.2c0,0,0,0.1,0.1,0.1c0,0,0.2,0,0.2,0c0.1,0,0.2,0,0.2,0.1
				c0,0.1,0,1,0,1.2c0,0.2,0,1,0,1.2c0.1,1.2,0.9,1.2,1.1,1.2c0.5,0,0.9-0.3,1-0.4c0,0,0.2-0.2,0.2-0.2c0.1,0,0.1,0.1,0.1,0.2
				c0,0.1,0.1,0.2,0.2,0.2h0.9c0.1,0,0.1-0.1,0.1-0.1C28.9,47.6,28.8,47.6,28.7,47.6z M32.8,47.5c0,0-0.2,0.1-0.3,0.1
				c-0.3,0-0.3-0.3-0.3-0.7c0-0.3,0-1.6,0-1.9c0-0.8-0.7-1.1-1.3-1.1c-0.7,0-1.4,0.4-1.4,0.8c0,0.2,0.2,0.4,0.4,0.4
				c0.3,0,0.4-0.3,0.4-0.5c0-0.1,0.1-0.5,0.6-0.5c0.4,0,0.8,0.3,0.8,0.9c0,0.4,0,0.4-0.5,0.6c-0.5,0.1-1.8,0.5-1.8,1.5
				c0,0.6,0.5,0.8,1,0.8c0.4,0,0.7-0.1,1.1-0.4c0.1-0.1,0.1-0.1,0.2-0.1c0.1,0,0.1,0.1,0.1,0.1c0.1,0.2,0.3,0.4,0.5,0.4
				c0.3,0,0.7-0.4,0.7-0.5C32.9,47.5,32.9,47.4,32.8,47.5C32.9,47.4,32.8,47.5,32.8,47.5z M31.6,47.1c-0.1,0.3-0.6,0.5-0.9,0.5
				c-0.6,0-0.7-0.4-0.7-0.6c0-0.8,1.2-1.3,1.5-1.3c0.2,0,0.2,0.1,0.2,0.3C31.7,47,31.7,47,31.6,47.1z M35.9,43.9
				c-0.6,0-1.1,0.6-1.1,0.7c-0.1,0.1-0.1,0.2-0.2,0.2c-0.1,0-0.1,0-0.1-0.5v-0.4c0,0,0,0,0,0c0,0-0.8,0.2-0.9,0.3
				c-0.4,0.1-0.4,0.1-0.4,0.2c0,0,0,0.1,0.1,0.1c0.1,0,0.3-0.1,0.4-0.1c0.1,0,0.2,0.1,0.2,0.2c0,0.1,0,1.3,0,1.6
				c0,1.1,0,1.2-0.1,1.3c-0.1,0.2-0.3,0.2-0.4,0.2c-0.2,0-0.3,0-0.3,0.1c0,0.1,0.2,0.1,0.2,0.1h1.6c0.1,0,0.2,0,0.2-0.1
				c0-0.1-0.1-0.1-0.2-0.1c-0.6,0-0.6-0.1-0.6-0.9c0-1.2,0-1.4,0.2-1.7c0.2-0.3,0.5-0.5,0.7-0.5c0.1,0,0.2,0.1,0.2,0.1
				c0.1,0.1,0.1,0.2,0.3,0.2c0.2,0,0.4-0.2,0.4-0.4C36.4,44.1,36.2,43.9,35.9,43.9z M40.8,44.1h-1.4c-0.1,0-0.2,0-0.2,0.1
				c0,0.1,0.1,0.1,0.1,0.1c0.2,0,0.6,0,0.6,0.3c0,0.1,0,0.1-0.1,0.4c-0.1,0.3-0.6,1.5-0.7,1.6c0,0.1-0.1,0.2-0.1,0.2
				c0,0-0.1,0-0.1-0.2c-0.1-0.3-0.9-1.9-0.9-2.1c0-0.1,0-0.3,0.4-0.3c0.1,0,0.2,0,0.2-0.1c0,0,0-0.1-0.2-0.1h-1.6
				c-0.1,0-0.2,0-0.2,0.1c0,0.1,0,0.1,0.3,0.2c0.2,0,0.4,0.4,0.5,0.5c0.1,0.2,1,2.4,1.1,2.6c0,0.1,0,0.2,0,0.3
				c0,0.2-0.2,0.9-0.6,0.9c-0.1,0-0.2,0-0.2-0.1c-0.1-0.1-0.2-0.2-0.4-0.2c-0.2,0-0.4,0.2-0.4,0.4c0,0.1,0,0.4,0.6,0.4
				c0.9,0,1.1-0.7,1.5-1.6c0-0.1,1-2.5,1-2.6c0.1-0.1,0.3-0.6,0.6-0.6c0.1,0,0.2,0,0.2-0.1C40.9,44.1,40.8,44.1,40.8,44.1z
				 M47.3,46.2c0,0,0,0-0.2,0.3c-0.2,0.5-0.7,0.8-1.5,0.8h-0.8c0,0-0.3,0-0.3-0.1c0-0.2,0.4-0.9,1.6-1.9c0.7-0.6,1.2-1,1.2-1.8
				c0-0.9-0.7-1.5-1.6-1.5c-1,0-1.7,0.8-1.7,1.4c0,0.3,0.2,0.5,0.5,0.5c0.2,0,0.4-0.2,0.4-0.4c0-0.1-0.1-0.2-0.2-0.4
				c-0.1-0.1-0.1-0.2-0.1-0.2c0-0.3,0.4-0.7,0.9-0.7c0.5,0,1.1,0.4,1.1,1.1c0,0.8-0.2,1-2.1,3.2c-0.2,0.2-0.7,0.8-0.7,1.3
				c0,0.1,0.2,0.1,0.2,0.1h2.5c0.1,0,0.4,0,0.5-0.3c0-0.2,0.3-1.2,0.3-1.3C47.4,46.3,47.4,46.2,47.3,46.2z M50.1,44.2
				c-0.6,0-0.9,0.4-1.1,0.5c-0.2,0.2-0.2,0.2-0.2,0.2c-0.1,0-0.1-0.1-0.1-0.2c0-1.1,0.6-2.6,1.3-2.6c0.2,0,0.2,0.1,0.2,0.3
				c0,0.4,0.3,0.5,0.4,0.5c0.2,0,0.4-0.1,0.4-0.4c0-0.4-0.4-0.7-0.9-0.7c-1.2,0-2.3,1.5-2.3,3.4c0,1.8,1,2.7,1.8,2.7
				c0.9,0,1.7-1,1.7-2.1C51.5,44.9,50.8,44.2,50.1,44.2z M49.8,47.7c-0.6,0-1-1.1-1-1.9c0-0.9,0.8-1.3,1.1-1.3
				c0.9,0,0.9,1.1,0.9,1.5C50.8,47.3,50.1,47.7,49.8,47.7z M54.3,47.4c-0.2,0.1-0.4,0.2-0.5,0.2c-0.1,0-0.4,0-0.6-0.4
				c0-0.1,0-1.4,0-1.6c0-0.2,0-1.1,0-1.1c0-0.1,0.2-0.1,0.2-0.1h0.9c0.2,0,0.2-0.1,0.2-0.1c0-0.1-0.1-0.1-0.2-0.1h-0.8
				c-0.2,0-0.2-0.1-0.2-0.2v-1c0,0,0-0.2-0.1-0.2c-0.1,0-0.1,0.1-0.1,0.2c0,1-0.7,1.2-0.8,1.2c-0.2,0-0.3,0-0.3,0.1
				c0,0.1,0.1,0.1,0.2,0.1h0.3c0.2,0,0.2,0.2,0.2,0.2c0,0.3,0,2,0,2c0,0.8,0,1.4,0.8,1.4c0.7,0,1.2-0.6,1.2-0.7c0,0,0-0.1,0-0.1
				C54.5,47.2,54.3,47.4,54.3,47.4z M58.7,47.6c-0.3,0-0.3-0.2-0.4-0.2c-0.1-0.1-0.1-0.9-0.1-1.1c0-1.4,0-1.4-0.1-1.8
				c-0.1-0.3-0.4-0.6-0.9-0.6c-0.4,0-0.7,0.2-0.9,0.3c0,0-0.3,0.2-0.3,0.2c-0.1,0-0.1-0.1-0.1-0.3c0-0.3,0-2.1,0-2.2
				c0-0.1,0-0.1-0.1-0.1c0,0-0.9,0.2-1,0.3c-0.1,0-0.1,0-0.1,0.1c0,0,0,0.1,0.1,0.1c0,0,0.2,0,0.2,0c0.2,0,0.3,0.1,0.3,0.2
				c0,0.1,0,1,0,1.3c0,3.1,0,3.4-0.1,3.6c0,0-0.1,0.2-0.4,0.2c-0.1,0-0.2,0-0.2,0.1c0,0.1,0.2,0.1,0.2,0.1h1.4c0.1,0,0.2,0,0.2-0.1
				c0-0.1-0.1-0.1-0.2-0.1c-0.4,0-0.4-0.3-0.4-1c0-1.5,0-1.5,0.1-1.7c0.1-0.3,0.6-0.6,1-0.6c0.1,0,0.4,0,0.5,0.3
				c0.2,0.3,0.2,0.6,0.2,1.6c0,1.2,0,1.3-0.2,1.4c-0.1,0-0.3,0-0.4,0c-0.1,0-0.1,0.1-0.1,0.1c0,0.1,0.1,0.1,0.2,0.1h1.5
				c0.1,0,0.2,0,0.2-0.1C59,47.6,58.9,47.6,58.7,47.6z M59.8,46.9c-0.3,0-0.5,0.2-0.5,0.5c0,0.3,0.2,0.4,0.3,0.4
				c0.2,0.1,0.2,0.1,0.2,0.2c0,0.1-0.2,0.3-0.3,0.4c-0.2,0.1-0.2,0.1-0.2,0.2c0,0,0,0.1,0.1,0.1c0.2,0,0.9-0.6,0.9-1.3
				C60.4,47.1,60.1,46.9,59.8,46.9z M66.9,46.2c0,0,0,0-0.2,0.3c-0.2,0.5-0.7,0.8-1.5,0.8h-0.8c0,0-0.3,0-0.3-0.1
				c0-0.2,0.4-0.9,1.6-1.9c0.7-0.6,1.2-1,1.2-1.8c0-0.9-0.7-1.5-1.6-1.5c-1,0-1.7,0.8-1.7,1.4c0,0.3,0.2,0.5,0.5,0.5
				c0.2,0,0.4-0.2,0.4-0.4c0-0.1-0.1-0.2-0.2-0.4c-0.1-0.1-0.1-0.2-0.1-0.2c0-0.3,0.4-0.7,0.9-0.7c0.5,0,1.1,0.4,1.1,1.1
				c0,0.8-0.2,1-2.1,3.2c-0.2,0.2-0.7,0.8-0.7,1.3c0,0.1,0.2,0.1,0.2,0.1h2.5c0.1,0,0.4,0,0.5-0.3c0-0.2,0.3-1.2,0.3-1.3
				C67,46.3,67,46.2,66.9,46.2z M69.2,41.9c-1.3,0-1.8,1.6-1.8,3.1c0,1.5,0.5,3.1,1.8,3.1c1.3,0,1.8-1.6,1.8-3.1
				C71,43.5,70.5,41.9,69.2,41.9z M69.2,47.7c-1.1,0-1.1-2.5-1.1-2.8c0-0.4,0-2.8,1.1-2.8c1.1,0,1.1,2.5,1.1,2.8
				C70.3,45.3,70.3,47.7,69.2,47.7z M74.5,47.6c-0.6,0-0.7-0.1-0.8-0.3c0-0.1,0-3.2,0-3.5c0-0.2,0-1.3,0-1.5c0-0.4,0-0.4-0.1-0.4
				c-0.1,0-0.3,0.2-0.4,0.2c-0.3,0.1-0.7,0.2-0.9,0.2c-0.2,0-0.3,0-0.3,0.1s0.1,0.1,0.3,0.1c0.7,0,0.8,0,0.8,0.4c0,0.4,0,2.3,0,2.7
				c0,0.3,0,1.7-0.1,1.8c-0.1,0.2-0.3,0.2-0.7,0.2c-0.3,0-0.4,0-0.4,0.1c0,0,0,0.1,0.2,0.1h2.4c0.1,0,0.2,0,0.2-0.1
				C74.6,47.6,74.5,47.6,74.5,47.6z M77.2,41.9c-1,0-1.7,1.1-1.7,2.1c0,1.2,0.9,1.8,1.5,1.8c0.4,0,0.7-0.1,1.1-0.5
				c0,0,0.1-0.1,0.1-0.1c0.1,0,0.1,0.1,0.1,0.2c0,0.4-0.1,1-0.3,1.5c-0.4,0.9-0.9,1-1,1c-0.3,0-0.4-0.3-0.4-0.4c0-0.3,0-0.6-0.4-0.6
				c-0.3,0-0.5,0.2-0.5,0.5c0,0.4,0.5,0.8,1.1,0.8c1.2,0,2.3-1.6,2.3-3.4C79,43.4,78.4,41.9,77.2,41.9z M77.2,45.4
				c-0.5,0-1-0.5-1-1.5c0-0.8,0.3-1.7,1-1.7c0.9,0,1.1,1.6,1.1,2.2C78.3,45.1,77.5,45.4,77.2,45.4z"/>
		</g>
	</g>
</g>
</svg>
