<?xml version="1.0" encoding="utf-8"?>
<!-- Generator: Adobe Illustrator 23.0.1, SVG Export Plug-In . SVG Version: 6.00 Build 0)  -->
<svg version="1.1" id="レイヤー_1" xmlns="http://www.w3.org/2000/svg" xmlns:xlink="http://www.w3.org/1999/xlink" x="0px"
	 y="0px" width="86.1px" height="53px" viewBox="0 0 86.1 53" style="enable-background:new 0 0 86.1 53;" xml:space="preserve">
<style type="text/css">
	.st0{fill:#FFFFFF;}
</style>
	<filter id="dropshadow" height="130%">
        <feGaussianBlur in="SourceAlpha" stdDeviation="1"/> <!-- stdDeviation is how much to blur -->
        <feOffset dx="1" dy="1" result="offsetblur"/> <!-- how much to offset -->
        <feComponentTransfer>
            <feFuncA type="linear" slope="0.5"/> <!-- slope is the opacity of the shadow -->
        </feComponentTransfer>
        <feMerge>
            <feMergeNode/> <!-- this contains the offset blurred image -->
            <feMergeNode in="SourceGraphic"/> <!-- this contains the element that the filter is applied to -->
        </feMerge>
    </filter>
<g style="filter:url(#dropshadow)">
	<g>
		<g>
			<path class="st0" d="M22.5,34.7c-0.1,0-0.1,0-0.2,0.3c-0.3,0.5-0.7,0.7-1.6,0.7H20c0,0-0.3,0-0.3-0.1c0-0.2,0.5-0.9,1.6-1.9
				c0.7-0.5,1.2-1,1.2-1.9c0-1-0.7-1.6-1.6-1.6c-1,0-1.7,0.8-1.7,1.5c0,0.3,0.2,0.5,0.5,0.5c0.3,0,0.5-0.2,0.5-0.5
				c0-0.2-0.1-0.3-0.2-0.4c-0.1-0.1-0.1-0.2-0.1-0.3c0-0.4,0.5-0.7,0.9-0.7c0.5,0,1.1,0.5,1.1,1.2c0,0.8-0.2,1-2.1,3.3
				c-0.2,0.2-0.7,0.8-0.7,1.3c0,0.1,0.2,0.1,0.3,0.1h2.6c0.1,0,0.5,0,0.5-0.3C22.3,35.8,22.5,34.8,22.5,34.7
				C22.6,34.8,22.6,34.7,22.5,34.7z M25.7,30.3c-1.3,0-1.8,1.6-1.8,3.1c0,1.5,0.5,3.1,1.8,3.1s1.8-1.6,1.8-3.1
				C27.6,32,27.1,30.3,25.7,30.3z M25.7,36.3c-1.1,0-1.1-2.6-1.1-2.8c0-0.5,0-2.8,1.1-2.8c1.1,0,1.1,2.6,1.1,2.8
				C26.8,33.8,26.8,36.3,25.7,36.3z M31.9,36.1c-0.6,0-0.7-0.1-0.8-0.4c0-0.1,0-3.2,0-3.7c0-0.3,0-1.3,0-1.6c0-0.4,0-0.4-0.1-0.4
				c-0.1,0-0.4,0.2-0.4,0.2c-0.3,0.1-0.7,0.2-0.9,0.2c-0.3,0-0.4,0-0.4,0.1c0,0.1,0.1,0.1,0.3,0.1c0.7,0,0.8,0,0.8,0.4
				c0,0.5,0,2.4,0,2.7c0,0.3,0,1.7-0.1,1.8c-0.1,0.3-0.3,0.3-0.7,0.3c-0.3,0-0.5,0-0.5,0.1c0,0,0,0.1,0.2,0.1L31.9,36.1
				C31.9,36.1,31.9,36.1,31.9,36.1C32.1,36.1,31.9,36.1,31.9,36.1z M35.5,30.3c-1.1,0-1.7,1.1-1.7,2.1c0,1.2,0.9,1.8,1.6,1.8
				c0.4,0,0.6-0.1,1.1-0.5c0,0,0.1-0.1,0.2-0.1c0.1,0,0.1,0.1,0.1,0.2c0,0.5-0.1,1.1-0.3,1.5c-0.4,0.9-0.9,1-1.1,1
				C35,36.3,35,36,35,35.9c0-0.3-0.1-0.6-0.5-0.6c-0.3,0-0.5,0.2-0.5,0.5c0,0.5,0.5,0.8,1.1,0.8c1.2,0,2.3-1.6,2.3-3.5
				C37.4,31.8,36.8,30.3,35.5,30.3z M35.6,33.8c-0.5,0-1.1-0.5-1.1-1.6c0-0.8,0.3-1.7,1-1.7c0.9,0,1.1,1.6,1.1,2.3
				C36.6,33.6,35.9,33.8,35.6,33.8z M42.7,34.8c-0.1,0-0.1,0-0.2,0.2c-0.1,0.1-0.1,0.1-0.3,0.1h-0.8c-0.2,0-0.2-0.1-0.2-0.2
				c0-0.2,0-0.5,0-0.8c0-0.2,0-0.2,0.2-0.2h0.9c0.2,0,0.3,0,0.3-0.1s-0.5-0.4-0.5-0.4c-0.1,0-0.3,0.3-0.3,0.3s-0.1,0-0.3,0h-0.2
				c-0.1,0-0.2,0-0.2-0.2v-0.6c0-0.1,0.1-0.1,0.2-0.1h1.2c0.2,0,0.3,0,0.3-0.1s-0.5-0.4-0.5-0.4s-0.2,0.2-0.2,0.3
				c0,0-0.1,0.1-0.3,0.1h-1.5c-0.1,0-0.2,0-0.2,0c0-0.1,0.1-0.2,0.1-0.2s0.2-0.1,0.2-0.2c0-0.1-0.5-0.3-0.5-0.3l-0.1,0.1
				c-0.2,0.7-0.7,1.4-0.9,1.6l-0.2,0.2l0,0c0.2,0,0.8-0.5,1.1-0.9c0.2-0.2,0.2-0.2,0.3-0.2h0.5c0.2,0,0.2,0,0.2,0.8
				c0,0.1,0,0.2-0.2,0.2h-0.6c-0.1,0-0.2,0-0.3,0c-0.2-0.1-0.2-0.1-0.3-0.1c0,0,0,0,0,0.1c0,0,0,0.8,0,0.9c0,0.3,0,0.4-0.2,0.4
				c-0.1,0-0.6,0-0.7,0l0,0l0,0l0.1,0.1c0,0,0,0,0.1,0h0.1c0.2,0,0.5,0,0.6,0h1.1c0.1,0,0.2,0,0.2,0.2c0,0.1,0,0.5,0,0.7
				c0,0.1,0,0.5,0,0.5c0,0.1,0.1,0.2,0.2,0.2c0.1,0,0.2-0.1,0.3-0.1s0.1-0.1,0.1-0.2c0-0.1,0-0.5,0-0.6v-0.5c0-0.1,0-0.2,0.2-0.2H43
				c0.2,0,0.3,0,0.3-0.1C43.3,35.1,42.8,34.8,42.7,34.8z M40.7,35.1h-0.6c-0.2,0-0.2,0-0.2-0.6c0-0.5,0-0.5,0.2-0.5h0.6
				c0.2,0,0.2,0,0.2,0.5C40.9,35.1,40.9,35.1,40.7,35.1z M47.8,34.7c-0.1,0-0.1,0-0.2,0.3c-0.3,0.5-0.7,0.7-1.6,0.7h-0.8
				c0,0-0.3,0-0.3-0.1c0-0.2,0.5-0.9,1.6-1.9c0.7-0.5,1.2-1,1.2-1.9c0-1-0.7-1.6-1.6-1.6c-1,0-1.7,0.8-1.7,1.5
				c0,0.3,0.2,0.5,0.5,0.5s0.5-0.2,0.5-0.5c0-0.2-0.1-0.3-0.2-0.4c-0.1-0.1-0.1-0.2-0.1-0.3c0-0.4,0.5-0.7,0.9-0.7
				c0.5,0,1.1,0.5,1.1,1.2c0,0.8-0.2,1-2.1,3.3c-0.2,0.2-0.7,0.8-0.7,1.3c0,0.1,0.2,0.1,0.3,0.1h2.6c0.1,0,0.5,0,0.5-0.3
				C47.6,35.8,47.8,34.8,47.8,34.7C47.9,34.8,47.9,34.7,47.8,34.7z M52.3,32.2c0,0,0,0-0.2,0.2c-0.1,0.1-0.1,0.1-0.2,0.1h-1.5
				c-0.1,0-0.1,0-0.3-0.1c-0.3-0.2-0.4-0.2-0.4-0.2l0,0v0.2c0,0.3,0.1,0.8,0.1,1.4c0,0.8,0,2-0.5,2.8c0,0-0.1,0.1-0.1,0.2l0,0
				c0,0,0.8-0.5,0.9-1.7c0-0.3,0-0.3,0.2-0.3H52c0.1,0,0.2,0,0.2,0.2s0,0.9,0,1.1c0,0.1,0,0.2-0.2,0.2c-0.1,0-0.5-0.1-0.6-0.1h-0.1
				c0,0,0,0.1,0.1,0.1c0.3,0.1,0.5,0.2,0.6,0.5c0,0.1,0.1,0.1,0.1,0.1c0.1,0,0.3-0.2,0.4-0.2c0.1-0.1,0.1-0.2,0.1-0.3
				c0-0.2,0-0.8,0-0.9c0-0.6,0-1.2,0-1.8c0-0.6,0-0.7,0-0.7c0-0.1,0.1-0.1,0.2-0.2c0,0,0,0,0-0.1C52.7,32.5,52.4,32.2,52.3,32.2z
				 M52,34.6h-1.6c-0.2,0-0.2-0.1-0.2-0.3c0-0.2,0-0.6,0-0.6c0-0.1,0.1-0.1,0.2-0.1H52c0.2,0,0.2,0,0.2,0.5
				C52.1,34.6,52.1,34.6,52,34.6z M52.1,33.5c0,0.1-0.1,0.1-0.2,0.1h-1.6c-0.2,0-0.2-0.1-0.2-0.2v-0.6c0-0.1,0.1-0.2,0.2-0.2H52
				c0.2,0,0.2,0,0.2,0.4C52.1,33,52.1,33.4,52.1,33.5z M57.5,34.7c-0.1,0-0.1,0-0.2,0.3c-0.3,0.5-0.7,0.7-1.6,0.7H55
				c0,0-0.3,0-0.3-0.1c0-0.2,0.5-0.9,1.6-1.9c0.7-0.5,1.2-1,1.2-1.9c0-1-0.7-1.6-1.6-1.6c-1,0-1.7,0.8-1.7,1.5
				c0,0.3,0.2,0.5,0.5,0.5s0.5-0.2,0.5-0.5c0-0.2-0.1-0.3-0.2-0.4c0-0.1,0-0.2,0-0.2c0-0.4,0.5-0.7,0.9-0.7c0.5,0,1.1,0.5,1.1,1.2
				c0,0.8-0.2,1-2.1,3.3c-0.2,0.2-0.7,0.8-0.7,1.3c0,0.1,0.2,0.1,0.3,0.1h2.6c0.1,0,0.5,0,0.5-0.3C57.4,35.9,57.6,34.9,57.5,34.7
				C57.6,34.8,57.6,34.7,57.5,34.7z M61.2,32.6c-0.6,0-1,0.4-1.2,0.5c-0.2,0.2-0.2,0.2-0.2,0.2c-0.1,0-0.1-0.1-0.1-0.2
				c0-1.1,0.5-2.7,1.4-2.7c0.2,0,0.3,0.1,0.3,0.3c0,0.5,0.3,0.5,0.5,0.5c0.2,0,0.5-0.1,0.5-0.4c0-0.4-0.5-0.7-0.9-0.7
				c-1.3,0-2.4,1.6-2.4,3.5c0,1.8,1,2.8,1.9,2.8s1.7-1,1.7-2.2C62.7,33.4,61.9,32.6,61.2,32.6z M60.8,36.3c-0.6,0-1.1-1.1-1.1-2
				s0.8-1.4,1.2-1.4c0.9,0,0.9,1.1,0.9,1.6C61.9,35.8,61.2,36.3,60.8,36.3z M66.7,32.5c-0.1,0-0.1,0-0.2,0.1c0,0.1-0.1,0.1-0.2,0.1
				h-1.6c-0.1,0-0.1,0-0.3-0.1c-0.2-0.1-0.2-0.1-0.3-0.1l0,0c0,0.1,0,0.3,0,0.3c0,0.5,0,1.7,0,2.3c0,0.2,0,1.2,0,1.3
				c0,0.1,0,0.2,0.2,0.2s0.3-0.2,0.3-0.3s0.1-0.1,0.2-0.1h1.6c0.1,0,0.1,0,0.1,0.1c0,0.2,0.2,0.2,0.2,0.2c0.2,0,0.3-0.1,0.3-0.3
				c0-0.3,0-1.6,0-1.8c0-0.5,0-0.5,0-1.1c0-0.3,0-0.3,0.1-0.4c0.1-0.1,0.1-0.1,0.1-0.1C67.1,32.7,66.8,32.5,66.7,32.5z M66.5,35.9
				c0,0.1-0.1,0.1-0.2,0.1h-1.6c-0.2,0-0.2-0.1-0.2-0.3s0-1,0-1.2c0-0.1,0-0.2,0.2-0.2h1.6c0.2,0,0.2,0.1,0.2,0.2
				C66.5,34.7,66.5,35.9,66.5,35.9z M66.4,34.4h-1.6c-0.2,0-0.2-0.1-0.2-0.2c0-0.1,0-1.2,0-1.3l0.1-0.1h1.6c0,0,0.1,0,0.1,0.1
				c0,0,0,1.2,0,1.3C66.5,34.3,66.5,34.4,66.4,34.4z"/>
		</g>
	</g>
	<g id="グランドオープン_2_">
		<g>
			<path class="st0" d="M12.4,39.1c-0.4-0.3-0.7-0.3-1.2-0.3c-0.1,0-0.5,0.1-0.5,0.2c0,0,0,0.1,0.2,0.1c0.4,0.1,0.9,0.4,1.1,0.5
				c0.3,0.3,0.4,0.4,0.6,0.4c0.2,0,0.3-0.2,0.3-0.4C12.8,39.7,12.8,39.4,12.4,39.1z M11.1,41.8c-0.1,0-0.4-0.2-0.5-0.3
				c-0.5-0.3-0.5-0.3-0.6-0.3s-0.4,0.1-0.5,0.2c-0.8,0.4-1.6,0.5-1.7,0.5c-0.1,0-0.2,0-0.2-0.1s0-0.1,0.1-0.2C7.9,41.3,8,41.1,8,41
				s-0.3-0.6-1.1-0.6c-0.1,0-0.3,0-0.3,0.1c0,0.1,0.1,0.3,0.1,0.4c0.1,0.7-1,2.3-1.9,3.2c-0.2,0.2-0.9,0.8-0.9,0.9
				c0,0,0,0.1,0.1,0.1c0.2,0,0.6-0.3,1.1-0.6C5.6,44,6,43.7,6.6,43c0.5-0.6,0.5-0.6,0.7-0.6c0.1,0,0.4,0,0.5,0
				c0.3,0,1.9-0.4,1.9-0.4s0.1,0,0.1,0.1c0,0.4-2.2,4.3-5.8,6.2c-0.4,0.3-0.4,0.3-0.4,0.4l0.1,0.1c0.1,0,1-0.3,2.3-1.1
				c2.4-1.6,3.6-3.5,4.2-4.4c0.4-0.6,0.5-0.7,0.5-0.7c0.4-0.3,0.5-0.3,0.5-0.5C11.3,42,11.2,41.9,11.1,41.8z M10.4,39.9
				c-0.1,0-0.2,0.1-0.2,0.1c0,0.1,0.1,0.1,0.2,0.2c0.5,0.4,0.5,0.5,0.8,0.6c0.4,0.5,0.5,0.5,0.6,0.5c0.2,0,0.4-0.3,0.4-0.5
				C12.1,40.7,11.8,39.9,10.4,39.9z M20.8,42.4c-0.1,0-0.3,0.1-0.4,0.1c0,0-0.7,0.1-0.8,0.1c-0.5,0.1-2.7,0.4-3.7,0.4
				c-0.5,0-0.9-0.1-1.2-0.2l-0.2-0.1c0,0-0.1,0-0.1,0.1c0,0.4,0.8,1.3,1.3,1.3c0.1,0,0.5-0.2,0.5-0.2c0.5-0.2,3.4-0.6,3.8-0.6
				c0.2,0,0.3,0.1,0.3,0.2c0,0.3-0.9,2.7-4.6,4.7c-0.1,0-0.4,0.2-0.5,0.2v0.1c0,0,0,0.1,0.1,0.1s1-0.3,2-0.7
				c1.6-0.8,2.4-1.7,3.3-3.1c0.3-0.5,0.5-0.6,0.6-0.8c0.3-0.2,0.3-0.3,0.3-0.5C21.8,43.1,21,42.4,20.8,42.4z M16.7,41.4
				c0.1,0,2.6-0.2,2.7-0.3c0.6-0.1,1.1-0.1,1.1-0.5c0-0.4-0.5-0.5-0.7-0.5c-0.2,0-1,0.2-1.1,0.3c-0.5,0.1-1.3,0.1-1.8,0.1
				c-0.2,0-0.5,0-0.6-0.1c-0.1,0-0.4-0.1-0.5-0.1c-0.1,0-0.1,0-0.1,0.1C15.7,40.6,16,41.4,16.7,41.4z M24.4,40.9
				c0.4,0.2,0.6,0.4,1.1,0.9c0.4,0.5,0.5,0.7,0.8,0.7c0.3,0,0.5-0.3,0.5-0.5c0-0.6-1-1.4-2.2-1.4c-0.2,0-0.3,0.1-0.3,0.1
				C24.4,40.9,24.4,40.9,24.4,40.9z M31.6,41.9c0,0-0.4,0.4-0.5,0.5c-1.9,1.9-5,3.9-5.6,3.9c-0.3,0-0.6-0.2-0.8-0.3
				c-0.1,0-0.3-0.2-0.4-0.2c-0.1,0-0.1,0.5-0.1,0.6c0,0.5,0.8,1.2,1.5,1.2c0.2,0,0.2,0,0.5-0.3c0.3-0.3,0.8-0.7,1.1-0.9
				C30.3,44.2,31.7,42.1,31.6,41.9C31.7,41.9,31.6,41.9,31.6,41.9z M35.9,43c-0.4-0.1-0.4-0.1-0.4-0.4c0-0.3,0.1-1.4,0.1-1.6
				c0-0.1,0.1-0.4,0.1-0.5c0-0.4-0.8-0.7-1.3-0.7c0,0-0.3,0-0.4,0.1c0,0,0,0,0,0.1c0.2,0.2,0.3,0.3,0.4,0.5c0.2,0.4,0.2,0.6,0.2,4
				c0,1.5,0,1.6-0.1,2.7c0,0.1-0.1,0.3-0.1,0.4c0,0.3,0.3,1.1,0.6,1.1c0.4,0,0.4-0.7,0.4-1.1c0-0.2,0-0.5,0-0.5
				c-0.1-1-0.1-1.6-0.1-2.9c0-0.8,0-0.8,0.2-0.8c0.4,0,0.9,0.5,1.2,1c0.8,1,0.8,1.1,1.1,1.1c0.1,0,0.5-0.1,0.5-0.4
				C38.3,44,36.6,43.1,35.9,43z M38.7,39.4c-0.3,0-0.5,0.1-0.5,0.2c0,0,0,0.1,0.2,0.1c0.4,0.2,0.8,0.5,1,0.6
				c0.2,0.3,0.4,0.5,0.6,0.5c0.2,0,0.3-0.2,0.3-0.4C40.3,39.9,39.5,39.4,38.7,39.4z M37.7,40.6c-0.1,0-0.2,0-0.2,0.1
				s0.1,0.2,0.2,0.2c0.5,0.4,0.5,0.5,0.7,0.7c0.3,0.5,0.4,0.5,0.5,0.5c0.3,0,0.4-0.3,0.4-0.5C39.3,41.2,38.5,40.6,37.7,40.6z
				 M48.8,42c-0.1,0-0.5,0.1-0.5,0.1c-0.3,0.1-1,0.2-1.2,0.2c-0.3,0-0.3-0.1-0.3-0.6c0-0.2,0-0.8,0-0.9s0.2-0.4,0.2-0.5
				s-0.4-0.5-0.9-0.5c-0.1,0-0.6,0-0.6,0.1s0.2,0.3,0.3,0.3c0.2,0.2,0.5,0.5,0.5,2c0,0.2-0.1,0.3-0.3,0.3s-1.9,0.2-2.6,0.2
				c-0.1,0-0.5,0-0.9-0.1c-0.1,0-0.4-0.1-0.5-0.1c0,0-0.1,0-0.1,0.1c0,0.2,0.7,1,1.1,1c0.1,0,0.5-0.2,0.7-0.2
				c0.2-0.1,1.6-0.2,1.8-0.2c0.1,0,0.1,0.1,0.1,0.1c0,0.4-1.2,2-2.8,3.5c-0.1,0.1-0.7,0.6-0.7,0.7c0,0,0,0.1,0.1,0.1
				c0.3,0,2.1-1.1,3.7-3.1c0.2-0.3,0.2-0.3,0.3-0.3c0.1,0,0.1,0,0.1,0.1s0.1,1.6,0.1,2.8c0,0.1,0,0.3-0.2,0.3c-0.1,0-1-0.4-1-0.4H45
				c0,0,0.2,0.3,0.3,0.3c0.3,0.2,0.5,0.5,0.6,0.9c0.1,0.4,0.2,0.5,0.5,0.5s0.7-0.5,0.7-1.1c0-0.2-0.1-1-0.2-1.3
				c0-0.3-0.2-2.9-0.2-3.1c0-0.3,0-0.5,1-0.5c0.2,0,0.8,0.1,0.9,0.1c0.2,0,0.7,0,0.7-0.3C49.5,42.1,48.9,42,48.8,42z M60.1,43.6
				c-0.1,0-0.2,0-0.3,0c-1.7,0.1-5.8,0.3-6.1,0.3c-0.7,0-1.2-0.1-1.4-0.1c-0.1,0-0.4-0.2-0.4-0.2s-0.1,0.1-0.1,0.2
				c0,0.4,0.5,1.1,1,1.1c0.2,0,0.7-0.2,0.9-0.2c0.3-0.1,2.9-0.2,4.6-0.2c0.3,0,1.4,0,1.6,0c0.5,0,1,0,1-0.4
				C60.9,44,60.8,43.6,60.1,43.6z M72,39.5c-0.6,0-1.1,0.5-1.1,1.1c0,0.6,0.5,1.1,1.1,1.1c0.6,0,1.1-0.5,1.1-1.1
				C73.1,40.1,72.8,39.5,72,39.5z M72,41.3c-0.3,0-0.7-0.2-0.7-0.7c0-0.5,0.5-0.7,0.7-0.7s0.7,0.3,0.7,0.7
				C72.6,40.9,72.4,41.3,72,41.3z M70.3,41.3c-0.4-0.3-0.5-0.5-0.8-0.5c-0.1,0-0.1,0-0.5,0.2c-0.5,0.2-3.9,0.5-4.4,0.5
				c-0.3,0-0.7-0.2-1-0.3c0,0-0.1-0.1-0.2-0.1s-0.1,0-0.1,0.3c0,0.6,0.9,1.2,1.2,1.2c0.1,0,0.5-0.2,0.5-0.3c0.7-0.3,4-0.8,4.2-0.8
				c0.1,0,0.3,0,0.3,0.2c0,0.1-0.2,1-0.8,1.9c-0.9,1.6-2.6,3.2-4.6,4.6c-0.1,0.1-0.2,0.1-0.2,0.2c0,0,0,0.1,0.1,0.1
				c0.1,0,4.2-1.6,5.9-5.4c0.2-0.5,0.3-0.5,0.5-0.7c0.2-0.2,0.3-0.3,0.3-0.5C70.9,42,70.9,41.8,70.3,41.3z M75.3,40.9
				c0.4,0.2,0.6,0.4,1.1,0.9c0.4,0.5,0.5,0.7,0.8,0.7c0.3,0,0.5-0.3,0.5-0.5c0-0.6-1-1.4-2.2-1.4c-0.2,0-0.3,0.1-0.3,0.1
				C75.1,40.9,75.2,40.9,75.3,40.9z M82.4,41.9c0,0-0.4,0.4-0.5,0.5c-1.9,1.9-5,3.9-5.6,3.9c-0.3,0-0.6-0.2-0.8-0.3
				c-0.1,0-0.3-0.2-0.4-0.2S75,46.4,75,46.5c0,0.5,0.8,1.2,1.5,1.2c0.2,0,0.2,0,0.5-0.3c0.3-0.3,0.8-0.7,1.1-0.9
				C81,44.2,82.4,42.1,82.4,41.9L82.4,41.9z"/>
		</g>
	</g>
	<g id="シェイプ_789_6_">
		<g>
			<path class="st0" d="M44.5,22.9c0-0.6-0.5-1.3-1.4-1.4c-0.5,0-1.1,0.3-1.3,0.7c-0.3,0.7,0.3,1.3,0.7,1.2c0.4,0,0.5-0.2,0.5-0.2
				c0.1-0.1,0.3,0,0.1,0.2c-0.2,0.5-1.1,0.5-1.1,0.5s-0.4,0.5-1.2,0.4s-1.3-0.6-1.3-0.6s-0.7,0.1-1.2-0.1c-0.6-0.2-1-0.6-1-0.6
				s-0.5,0.1-1.3,0.1c-0.9,0-1.6-0.4-1.6-0.4s1.1,0.9,1.6,1.3c0.5,0.4,1.5,0.9,2.9,1.4c1.1,0.4,2.5,0.4,3.5-0.2
				C44.2,24.4,44.4,23.5,44.5,22.9z M39,9.9c-0.9-0.1-1.8-0.7-2.7-0.1c-0.3,0.2-0.4,0.5-0.4,0.7c0,0.8,1.6,1.1,2.9,0.5
				c3.7,0.9,7.4,0.7,9.6-0.1l0,0h0.1h0.1c0.3-0.1,0.5-0.2,0.7-0.4c0.6-0.4,0.5-0.8,0.3-1.3c-0.4-0.5-1.1-0.9-2.2-0.8
				c-0.1,0-0.1,0.1-0.1,0.2c0.2,0.2,0.3,0.4-0.1,0.5c-0.7,0.5-3.4,1.6-6.9,1c1.6-0.9,3.1-2.1,3.8-3.4c0.2-0.3,0.2-0.6,0.1-0.8
				c-0.2-0.4-0.6-0.5-1.3-0.5c-0.5,0-1,0.2-1.6,0.5c-0.1,0.1-0.1,0.2,0,0.2c0.3,0.1,0.5,0.4,0.1,0.9C40.6,8.3,40.1,8.9,39,9.9z
				 M36.4,10.3c0.3-0.4,0.9,0.1,1.6,0.3C37,11.1,36.1,10.7,36.4,10.3z M46.8,15.7c1.7,0.1,2.7,0.5,2.7,0.5c0.5-0.1,0.9-0.7,0.9-1.2
				S50,14,49.5,13.9c0,0-0.8,0.5-2.7,0.5c-0.1,0-0.3,0-0.5,0v-1.2c0-0.5,0.5-0.8,0.1-1.1c-0.2-0.1-0.5-0.3-0.9-0.3
				c-1.5-0.3-1.3,0.4-1.1,0.6c0.2,0.2,0.3,0.6,0.3,0.7v1.3c-0.5,0-1.1,0-1.6,0s-1.1,0-1.6,0v-1.3c0-0.5,0.5-0.8,0.1-1.1
				c-0.2-0.1-0.5-0.3-0.9-0.3c-1.5-0.3-1.3,0.4-1.1,0.6c0.2,0.2,0.3,0.6,0.3,0.7v1.3c-0.2,0-0.4,0-0.5,0c-1.7-0.1-2.7-0.5-2.7-0.5
				c-0.5,0.1-0.9,0.7-0.9,1.2c0,0.5,0.4,1.1,0.9,1.2c0,0,0.8-0.5,2.7-0.5c0.1,0,0.3,0,0.5,0v1.1c0,2.1-0.5,2.4-0.5,2.4
				c0,0.5,0.7,0.9,1.3,0.9c0.5,0,1.3-0.4,1.3-0.9c0,0-0.5-0.3-0.5-2.4v-1.2c0.5,0,1.1,0,1.6,0s1.1,0,1.6,0v1.2
				c0,2.1-0.5,2.4-0.5,2.4c0,0.5,0.7,0.9,1.3,0.9c0.5,0,1.3-0.4,1.3-0.9c0,0-0.5-0.3-0.5-2.4v-1.1C46.6,15.7,46.8,15.7,46.8,15.7z
				 M50,20.2c-0.4-0.5-1.2-0.7-1.8-0.3c-0.4,0.3-0.7,0.8-0.5,1.4c0.2,0.7,1,0.8,1.3,0.5c0.3-0.2,0.3-0.5,0.3-0.5
				c0-0.1,0.2-0.2,0.2,0.1c0,0.5-0.7,1-0.7,1s0,0.5-0.7,1c-0.7,0.5-1.4,0.3-1.4,0.3s-0.5,0.5-1,0.6c-0.6,0.3-1.2,0.1-1.2,0.1
				s-0.4,0.4-1,0.8c-0.7,0.5-1.5,0.5-1.5,0.5s1.4,0.1,2.1,0.1s1.7-0.1,3.2-0.6c1.1-0.4,2.2-1.2,2.7-2.2C50.6,21.6,50.3,20.8,50,20.2
				z M52.8,14.8c-0.5-0.2-1.4,0.1-1.6,0.8c-0.2,0.5-0.1,1.1,0.4,1.5c0.6,0.5,1.3,0.1,1.4-0.4c0.1-0.4,0-0.5,0-0.5
				c-0.1-0.1,0.1-0.3,0.2-0.1c0.3,0.4,0,1.2,0,1.2s0.3,0.5,0,1.2c-0.4,0.8-1,1-1,1s-0.2,0.6-0.5,1.2c-0.4,0.6-0.9,0.8-0.9,0.8
				s0,0.5-0.4,1.3c-0.3,0.8-0.8,1.4-0.8,1.4s1.2-0.7,1.7-1.2c0.5-0.5,1.4-1.1,2.2-2.4c0.6-1,1.1-2.3,0.9-3.4
				C54.2,15.4,53.4,15,52.8,14.8z M55.8,13c0-1.2-0.5-2.5-1.3-3.3c-1.1-1.2-1.9-1.2-2.6-1c-0.6,0.2-1.1,0.9-0.8,1.6
				c0.1,0.5,0.6,0.9,1.1,0.9c0.7,0,1.1-0.6,0.9-1.1c-0.1-0.3-0.3-0.5-0.4-0.5c-0.1-0.1-0.1-0.2,0.1-0.2c0.5,0.2,0.7,1,0.7,1
				s0.5,0.2,0.7,1c0.2,0.8-0.2,1.5-0.2,1.5s0.3,0.6,0.3,1.2c0.1,0.7-0.3,1.2-0.3,1.2s0.3,0.5,0.5,1.2c0.3,0.8,0.1,1.6,0.1,1.6
				s0.5-1.3,0.7-2C55.6,15.5,55.9,14.5,55.8,13z M47.7,4.3c-0.4,0.5-0.3,1.4,0.3,1.8c0.4,0.3,1,0.4,1.5,0.1C50,5.8,49.9,5,49.5,4.8
				c-0.3-0.2-0.5-0.2-0.5-0.2s-0.2-0.1,0-0.2c0.5-0.1,1.2,0.4,1.2,0.4s0.5-0.2,1.2,0.5C52,5.9,52,6.5,52,6.5s0.5,0.4,0.9,0.8
				c0.5,0.6,0.5,1.2,0.5,1.2s0.5,0.2,1.1,0.7c0.6,0.5,1,1.2,1,1.2s-0.4-1.4-0.6-2c-0.3-0.6-0.6-1.6-1.6-2.8
				c-0.7-0.9-1.8-1.7-2.9-1.9C48.8,3.3,48.1,3.8,47.7,4.3z M41.6,3.2c0,0.6,0.5,1.3,1.4,1.4c0.5,0,1.1-0.3,1.3-0.7
				c0.3-0.7-0.3-1.3-0.7-1.2c-0.4,0-0.5,0.2-0.5,0.2c-0.1,0.1-0.3,0-0.1-0.2c0.3-0.4,1.2-0.4,1.2-0.4s0.4-0.5,1.2-0.4
				c0.8,0.1,1.3,0.6,1.3,0.6s0.7-0.1,1.2,0.1c0.6,0.2,1,0.6,1,0.6s0.5-0.1,1.3-0.1c0.9,0,1.6,0.4,1.6,0.4S50.5,2.7,50,2.3
				S48.5,1.4,47,0.9c-1.1-0.4-2.5-0.4-3.5,0.2C41.9,1.7,41.7,2.6,41.6,3.2z M36.1,5.9c0.4,0.5,1.2,0.7,1.8,0.3
				c0.5-0.3,0.7-0.8,0.6-1.4c-0.2-0.7-1-0.8-1.3-0.5c-0.3,0.2-0.3,0.5-0.3,0.5c0,0.1-0.2,0.2-0.2-0.1c0-0.5,0.7-1,0.7-1s0-0.5,0.7-1
				c0.7-0.5,1.4-0.3,1.4-0.3s0.5-0.5,1-0.6c0.6-0.3,1.2-0.1,1.2-0.1s0.4-0.4,1-0.8c0.7-0.5,1.5-0.5,1.5-0.5s-1.4,0-2.1,0
				s-1.7,0.1-3.2,0.6c-1.1,0.4-2.2,1.2-2.7,2.2C35.5,4.6,35.8,5.4,36.1,5.9z M33.3,11.3c0.5,0.2,1.4-0.1,1.6-0.8
				c0.2-0.5,0.1-1.1-0.4-1.5C34,8.6,33.3,9,33.2,9.4c-0.1,0.4,0,0.5,0,0.5c0.1,0.1-0.1,0.3-0.2,0.1c-0.3-0.4,0-1.2,0-1.2
				s-0.3-0.5,0-1.2c0.4-0.8,1-1,1-1s0.2-0.6,0.5-1.2c0.4-0.6,0.9-0.8,0.9-0.8s0-0.5,0.4-1.3C36.1,2.6,36.6,2,36.6,2
				s-1.2,0.7-1.7,1.2c-0.5,0.5-1.4,1.1-2.2,2.4c-0.6,1-1.1,2.3-0.9,3.4C31.9,10.6,32.7,11.2,33.3,11.3z M34.1,17.5
				c0.6-0.2,1.1-0.9,0.8-1.6c-0.1-0.5-0.6-0.9-1.1-0.9c-0.7,0-1.1,0.6-0.9,1.1c0.1,0.3,0.3,0.5,0.4,0.5c0.1,0.1,0.1,0.2-0.1,0.2
				c-0.5-0.2-0.7-1-0.7-1s-0.5-0.2-0.7-1c-0.1-1,0.3-1.6,0.3-1.6s-0.3-0.6-0.3-1.2c-0.1-0.7,0.3-1.2,0.3-1.2s-0.3-0.5-0.5-1.2
				C31.3,8.7,31.5,8,31.5,8s-0.5,1.3-0.7,2c-0.2,0.6-0.5,1.6-0.4,3.2c0,1.2,0.5,2.5,1.3,3.3C32.7,17.6,33.6,17.6,34.1,17.5z
				 M38.4,21.8c0.4-0.5,0.3-1.4-0.3-1.8c-0.4-0.3-1-0.4-1.5-0.1c-0.6,0.5-0.5,1.2-0.1,1.5c0.3,0.2,0.5,0.2,0.5,0.2s0.2,0.1,0,0.2
				c-0.5,0.1-1.2-0.4-1.2-0.4s-0.5,0.2-1.2-0.5c-0.6-0.6-0.6-1.3-0.6-1.3s-0.5-0.4-0.9-0.8c-0.5-0.5-0.5-1.1-0.5-1.1
				s-0.5-0.2-1.1-0.7c-0.6-0.5-1-1.2-1-1.2s0.4,1.4,0.6,2c0.3,0.6,0.6,1.6,1.6,2.8c0.7,0.9,1.8,1.7,2.9,1.9
				C37.3,22.9,38,22.3,38.4,21.8z"/>
		</g>
	</g>
</g>
</svg>
