<?xml version="1.0" encoding="utf-8"?>
<!-- Generator: Adobe Illustrator 23.0.1, SVG Export Plug-In . SVG Version: 6.00 Build 0)  -->
<svg version="1.1" id="Capa_1" xmlns="http://www.w3.org/2000/svg" xmlns:xlink="http://www.w3.org/1999/xlink" x="0px" y="0px"
	 width="395.1px" height="361px" viewBox="0 0 395.1 361" style="enable-background:new 0 0 395.1 361;" xml:space="preserve">
<style type="text/css">
	.st0{fill:#C30D23;}
</style>
<g>
	<path class="st0" d="M357.7,52.8H37.5c-17,0-30.8,13.8-30.8,30.8v209.8c0,17,13.8,30.8,30.8,30.8h320.2c17,0,30.8-13.8,30.8-30.8
		V83.6C388.4,66.6,374.6,52.8,357.7,52.8z M357.7,65.1c3.2,0,6.2,0.8,8.8,2.3L212.1,202c-7.9,6.8-21.1,6.9-29,0L28.6,67.4
		c2.6-1.4,5.7-2.3,8.9-2.3H357.7z M376.1,293.4c0,10.2-8.3,18.5-18.5,18.5H37.5c-10.2,0-18.5-8.3-18.5-18.5V83.6
		c0-2.5,0.5-4.8,1.4-7L175,211.3c6.2,5.4,14.4,8.1,22.6,8.1s16.4-2.7,22.6-8.2L374.7,76.6c0.9,2.2,1.4,4.5,1.4,7V293.4z"/>
</g>
</svg>
