<?xml version="1.0" encoding="utf-8"?>
<!-- Generator: Adobe Illustrator 23.0.1, SVG Export Plug-In . SVG Version: 6.00 Build 0)  -->
<svg version="1.1" id="レイヤー_7" xmlns="http://www.w3.org/2000/svg" xmlns:xlink="http://www.w3.org/1999/xlink" x="0px"
	 y="0px" width="500px" height="500px" viewBox="0 0 500 500" style="enable-background:new 0 0 500 500;" xml:space="preserve">
<style type="text/css">
	.st0{fill:#C30D23;}
</style>
<path class="st0" d="M250,484C121,484,16,379,16,250C16,121,121,16,250,16s234,105,234,234C484,379,379,484,250,484z M250,33.4
	c-116.3,0-210.9,94.6-210.9,210.9S133.7,460.9,250,460.9s210.9-100.4,210.9-216.6S366.3,33.4,250,33.4z"/>
<polygon class="st0" points="246,274.4 179,207.3 195.3,190.9 257.7,252.2 "/>
<rect x="246.1" y="91.5" class="st0" width="11.6" height="183.3"/>
</svg>
