<?xml version="1.0" encoding="utf-8"?>
<!-- Generator: Adobe Illustrator 23.0.1, SVG Export Plug-In . SVG Version: 6.00 Build 0)  -->
<svg version="1.1" id="レイヤー_17" xmlns="http://www.w3.org/2000/svg" xmlns:xlink="http://www.w3.org/1999/xlink" x="0px"
	 y="0px" width="500px" height="500px" viewBox="0 0 500 500" style="enable-background:new 0 0 500 500;" xml:space="preserve">
<path d="M251.6,476.6c-60.5,0-117.4-23.6-160.2-66.4S25.1,310.5,25.1,250S48.6,132.6,91.4,89.8s99.7-66.4,160.2-66.4
	S369.1,47,411.9,89.8s66.4,99.7,66.4,160.2s-23.6,117.4-66.4,160.2S312.2,476.6,251.6,476.6z M251.6,33.4
	C137.7,33.4,45.1,126.1,45.1,240s92.7,216.6,206.6,216.6S458.2,353.9,458.2,240S365.5,33.4,251.6,33.4z"/>
<path d="M258.2,259c-5.6,1.7-12,0.3-16.4-4.1c-4.4-4.4-5.8-10.8-4.1-16.4l-9.4-9.4l-81.1,120.5l120.5-81.1L258.2,259z"/>
<path d="M265,231.6c5.8,5.8,6.3,14.7,1.8,21.2l8.2,8.2l81.1-120.5l-120.5,81.1l8.2,8.2C250.3,225.3,259.3,225.8,265,231.6z"/>
</svg>
