<?xml version="1.0" encoding="utf-8"?>
<!-- Generator: Adobe Illustrator 23.0.1, SVG Export Plug-In . SVG Version: 6.00 Build 0)  -->
<svg version="1.1" id="レイヤー_17" xmlns="http://www.w3.org/2000/svg" xmlns:xlink="http://www.w3.org/1999/xlink" x="0px"
	 y="0px" width="500px" height="500px" viewBox="0 0 500 500" style="enable-background:new 0 0 500 500;" xml:space="preserve">
<style type="text/css">
	.st0{fill:#FFFFFF;}
</style>
<g>
	<path class="st0" d="M469.1,358.6c-6-14.7-37.9-35-51.3-43c-30.5-18.3-51.5-25.9-62.2-22.8c-4.7,1.4-11.1,5-36.8,33.3
		c-1.4,1.5-2.7,3-4,4.5c0,0,0,0,0,0.1c-6.2,6.9-11.9,13.5-15.7,17.9c-14.7-5.6-42.8-25.7-77.3-61.8c-30.7-32-54.7-64.6-62.8-84.7
		c4.2-3,9.8-7.1,15.8-11.7c0.1,0,0.1-0.1,0.2-0.1c1.4-1.1,2.8-2.2,4.3-3.4c27.2-21.6,32-31.4,33.2-38.1c2.9-16.9-16.5-52.4-25-66.9
		C168,49,152,31.2,139.5,29c-11.3-2-33.5,3.5-53.8,17.9c-2.4,1.7-4.9,3.6-7.5,5.8c-0.1,0.1-0.2,0.2-0.4,0.3
		c-17.1,14.5-36.1,39.2-44,80.1c-7.4,38.8,4.2,84,34.6,134.4c24.4,40.5,56.5,76,78.3,95.7c1.4,1.2,2.8,2.6,4.4,4
		c35.9,32.6,114.4,103.9,193.2,103.9c10.6,0,21.3-1.3,31.8-4.2c53.2-14.4,76.4-41.9,86.5-62.4C472.2,385.3,472.7,367.2,469.1,358.6z
		 M362.5,316.3c5.7,0.8,22,7.4,44.4,21c23.5,14.3,37.5,26.4,39.8,30.4c0.7,3,0.5,13.9-6,26.6c-14.3-13.8-35.7-27.8-53.4-38.2
		c-11.8-6.9-28.7-16.2-42.5-22.5C352.6,325.3,359.1,318.8,362.5,316.3z M134.9,52.8c3.8,2,15.9,14.5,32.1,42.5
		c14.7,25.3,21.2,43.9,21.3,49.1c-1.5,3.2-7.6,9.4-16.2,16.7C159.7,132.8,136,84.7,108,61.5c12-6.6,22.4-8.6,26.4-8.6
		C134.5,52.8,134.7,52.8,134.9,52.8z M369.8,443.5c-75.8,20.6-164.5-59.9-202.3-94.2c-1.6-1.4-3-2.8-4.4-4
		c-20.5-18.5-50.7-52-73.8-90.3c-33.9-56.2-35.9-94.8-31.6-117.3c5.5-28.8,28.3-57.9,41.1-70.8c21.6,14,46.7,57.8,64.5,100.2
		c-4.7,3.5-8.4,4.6-13.4,7.9c-4.1,2.8-6.1,7.8-5,12.6c6.1,28,40.9,71.9,71.4,103.7c15,15.6,66.4,67,97.8,70.6c4,0.5,8-1.1,10.7-4.2
		c4.8-5.7,9.9-11.6,15-17.4c9.2,3.8,27.4,12.6,48.5,25.1c22.8,13.5,40.6,26.5,50,36.3C426.9,412.8,397.2,436.1,369.8,443.5z"/>
</g>
</svg>
