<?xml version="1.0" encoding="utf-8"?>
<!-- Generator: Adobe Illustrator 23.0.1, SVG Export Plug-In . SVG Version: 6.00 Build 0)  -->
<svg version="1.1" id="レイヤー_17" xmlns="http://www.w3.org/2000/svg" xmlns:xlink="http://www.w3.org/1999/xlink" x="0px"
	 y="0px" width="500px" height="500px" viewBox="0 0 500 500" style="enable-background:new 0 0 500 500;" xml:space="preserve">
<g>
	<g>
		<g>
			<path d="M24.3,67.5v369.1c0,8.1,6.6,14.7,14.7,14.7h422c8.1,0,14.7-6.6,14.7-14.7V67.5c0-8.1-6.6-14.7-14.7-14.7H39
				C30.9,52.8,24.3,59.4,24.3,67.5z M455.8,430.3H45.3V121.1h410.6V430.3z M455.8,105.7H45.3V68.2h410.6V105.7z"/>
		</g>
	</g>
	<g>
		<g>
			<path d="M263.2,181V376c0,7.5,6.1,13.6,13.6,13.6h132.3c7.5,0,13.6-6.1,13.6-13.6V181c0-7.5-6.1-13.6-13.6-13.6H276.8
				C269.3,167.4,263.2,173.5,263.2,181z M401.8,367.5H284.2V182.9h117.7V367.5z"/>
		</g>
	</g>
	<g>
		<g>
			<rect x="77.2" y="167.4" width="159.6" height="15.4"/>
		</g>
	</g>
	<g>
		<g>
			<rect x="77.2" y="220.3" width="106.7" height="15.4"/>
		</g>
	</g>
	<g>
		<g>
			<rect x="77.2" y="290.8" width="159.6" height="15.4"/>
		</g>
	</g>
	<g>
		<g>
			<rect x="77.2" y="343.7" width="106.7" height="15.4"/>
		</g>
	</g>
</g>
</svg>
