<?xml version="1.0" encoding="utf-8"?>
<!-- Generator: Adobe Illustrator 23.0.1, SVG Export Plug-In . SVG Version: 6.00 Build 0)  -->
<svg version="1.1" id="レイヤー_17" xmlns="http://www.w3.org/2000/svg" xmlns:xlink="http://www.w3.org/1999/xlink" x="0px"
	 y="0px" width="500px" height="500px" viewBox="0 0 500 500" style="enable-background:new 0 0 500 500;" xml:space="preserve">
<style type="text/css">
	.st0{fill:#FFFFFF;}
</style>
<path class="st0" d="M412.6,89.1c-43-43-100.2-66.7-161-66.7c-60.8,0-117.9,23.7-160.9,66.7C47.8,132,24.1,189.2,24.1,250
	c0,60.8,23.6,118,66.6,160.9c43,43,100.2,66.7,160.9,66.7c60.8,0,118-23.7,161-66.7c43-43,66.7-100.2,66.7-160.9
	S455.6,132.1,412.6,89.1z M457.2,240c0,54.6-22,109.4-60.3,150.3c-39.4,42.1-91,65.3-145.2,65.3c-54.2,0-105.8-23.2-145.3-65.3
	C68.1,349.4,46.1,294.6,46.1,240c0-113.4,92.2-205.6,205.5-205.6C365,34.4,457.2,126.6,457.2,240z"/>
<path class="st0" d="M257.9,258c-5.5,1.7-11.4,0.2-15.4-3.9c-4-4-5.5-9.9-3.8-15.4l0.2-0.6l-10.7-10.7l-84.6,125.8l124.7-84l1-0.7
	l-10.8-10.8L257.9,258z"/>
<path class="st0" d="M243.7,231.1l0.7-0.5c6.3-4.4,14.7-3.7,19.9,1.7l0,0c5.3,5.3,6,13.7,1.7,19.9l-0.5,0.7l9.6,9.6l84.6-125.8
	L234,221.4L243.7,231.1z"/>
</svg>
