<?xml version="1.0" encoding="utf-8"?>
<!-- Generator: Adobe Illustrator 23.0.1, SVG Export Plug-In . SVG Version: 6.00 Build 0)  -->
<svg version="1.1" id="レイヤー_1" xmlns="http://www.w3.org/2000/svg" xmlns:xlink="http://www.w3.org/1999/xlink" x="0px"
	 y="0px" width="48px" height="48px" viewBox="0 0 48 48" style="enable-background:new 0 0 48 48;" xml:space="preserve">
<style type="text/css">
	.st0{fill:none;stroke:#FFFFFF;stroke-width:3;stroke-linecap:round;stroke-linejoin:round;}
</style>
<g id="icon_data">
	<polyline class="st0" points="42.2,25.6 42.2,46.2 5.6,46.2 5.6,21 	"/>
	<polyline class="st0" points="28.5,11.9 45.7,11.9 45.7,21 28.5,21 	"/>
	<polyline class="st0" points="23.9,21 2.1,21 2.1,11.9 23.9,11.9 	"/>
	<line class="st0" x1="23.9" y1="46.2" x2="23.9" y2="11.9"/>
	<path class="st0" d="M23.9,11.9c0,0,0-10.3,10-10.3c5.6,0,5.5,10.3,0,10.3"/>
	<path class="st0" d="M23.9,11.9c0,0,0-10.3-10-10.3c-5.6,0-5.7,10.3,0,10.3"/>
</g>
</svg>
