<?xml version="1.0" encoding="utf-8"?>
<!-- Generator: Adobe Illustrator 23.0.1, SVG Export Plug-In . SVG Version: 6.00 Build 0)  -->
<svg version="1.1" id="レイヤー_11" xmlns="http://www.w3.org/2000/svg" xmlns:xlink="http://www.w3.org/1999/xlink" x="0px"
	 y="0px" width="500px" height="500px" viewBox="0 0 500 500" style="enable-background:new 0 0 500 500;" xml:space="preserve">
<style type="text/css">
	.st0{fill:none;stroke:#a06daf;stroke-width:20;stroke-miterlimit:10;}
</style>
<g>
	<path class="st0" d="M98.9,465.1h304.2c34.8,0,63-28.3,63-63V97.9c0-34.8-28.3-63-63-63H98.9c-34.8,0-63,28.3-63,63v304.2
		C35.9,436.8,64.2,465.1,98.9,465.1z"/>
	<path class="st0" d="M251,161.8c48.7,0,88.2,39.6,88.2,88.2s-39.6,88.2-88.2,88.2s-88.2-39.6-88.2-88.2S202.4,161.8,251,161.8z"/>
	<path class="st0" d="M377,151.7c15.3,0,27.8-12.5,27.8-27.8S392.4,96.2,377,96.2c-15.3,0-27.8,12.5-27.8,27.8
		S361.7,151.7,377,151.7z"/>
</g>
</svg>
