<?xml version="1.0" encoding="utf-8"?>
<!-- Generator: Adobe Illustrator 23.0.1, SVG Export Plug-In . SVG Version: 6.00 Build 0)  -->
<svg version="1.1" id="レイヤー_11" xmlns="http://www.w3.org/2000/svg" xmlns:xlink="http://www.w3.org/1999/xlink" x="0px"
	 y="0px" width="500px" height="500px" viewBox="0 0 500 500" style="enable-background:new 0 0 500 500;" xml:space="preserve">
<style type="text/css">
	.st0{fill:none;stroke:#4db845;stroke-width:20;stroke-miterlimit:10;}
	.st1{fill:none;stroke:#4db845;stroke-width:20;stroke-linecap:round;stroke-linejoin:round;stroke-miterlimit:10;}
	.st2{fill:#4db845;}
</style>
<path class="st0" d="M401.5,34.5H98.7C64.1,34.5,36,62.7,36,97.3V400c0,34.6,28.1,62.7,62.7,62.7h139.7h50.2h112.9
	c34.6,0,62.7-28.1,62.7-62.7V97.3C464.2,62.7,436,34.5,401.5,34.5z"/>
<path class="st1" d="M250,116.9c-78.4,0-142.2,49.3-142.2,110c0,54.8,52.9,101.7,123,109c6.3,0.7,11.9,3.7,15.9,8.7
	c4,4.9,5.8,11.1,5.1,17.4l-2,17.7c49.4-25,86.9-52.8,111.7-82.6c4-4.8,17.1-23.4,19.2-27.2c5.2-9.4,8.7-19.4,10.3-29.5l0.1-0.4
	c0.5-2.7,0.9-5.3,1-7.7c0.2-2.6,0-7.2-0.2-10.4c-1.6-27.7-16.7-53.8-42.4-73.4C322.9,128.1,287.5,116.9,250,116.9z"/>
<g>
	<path class="st2" d="M202.6,254.1V267h-40v-72h15.3v59.1H202.6z"/>
	<path class="st2" d="M226.2,267h-15.3v-72h15.3V267z"/>
	<path class="st2" d="M291,195v72h-21.5l-13.7-42.9c-1.6-4.8-2.7-9.8-3.7-14.8h-0.7c1.1,11.8,1.6,28.4,1.6,38.5V267h-13.4v-72H261
		l13.7,42.9c1.6,4.8,2.8,9.8,3.8,14.8h0.7c-1.1-11.9-1.7-24.6-1.7-36.6V195H291z"/>
	<path class="st2" d="M343.9,254.5V267h-39.6v-72h38.8v12.5h-23.9v17.1h21.5v12h-21.5v18H343.9z"/>
</g>
</svg>
